<?xml version="1.0" encoding="utf-8"?>
<!-- Generator: Adobe Illustrator 16.0.4, SVG Export Plug-In . SVG Version: 6.00 Build 0)  -->
<!DOCTYPE svg PUBLIC "-//W3C//DTD SVG 1.1//EN" "http://www.w3.org/Graphics/SVG/1.1/DTD/svg11.dtd">
<svg version="1.1" id="Layer_1" xmlns="http://www.w3.org/2000/svg" xmlns:xlink="http://www.w3.org/1999/xlink" x="0px" y="0px"
	 width="120px" height="240px" viewBox="0 0 120 240" enable-background="new 0 0 120 240" xml:space="preserve">
<symbol  id="ic_x5F_add_x5F_darkalt" viewBox="0 -24 24 24">
	<g>
		<g opacity="0.25">
			<linearGradient id="SVGID_1_" gradientUnits="userSpaceOnUse" x1="12" y1="-21" x2="12" y2="-3">
				<stop  offset="0" style="stop-color:#000000;stop-opacity:0.7"/>
				<stop  offset="1" style="stop-color:#000000;stop-opacity:0.6"/>
			</linearGradient>
			<path fill="url(#SVGID_1_)" d="M19-3H5C3.896-3,3-3.896,3-5v-14c0-1.104,0.896-2,2-2h14c1.104,0,2,0.896,2,2v14
				C21-3.896,20.104-3,19-3z M17-13h-4v-4h-2v4H7v2h4v4h2v-4h4V-13z"/>
		</g>
		<g opacity="0.03">
			<path d="M19-3.5c0.827,0,1.5-0.673,1.5-1.5v-14c0-0.827-0.673-1.5-1.5-1.5H5c-0.827,0-1.5,0.673-1.5,1.5v14
				c0,0.827,0.673,1.5,1.5,1.5H19 M10.5-10.5H7H6.5V-11v-2v-0.5H7h3.5V-17v-0.5H11h2h0.5v0.5v3.5H17h0.5v0.5v2v0.5H17h-3.5V-7v0.5
				H13h-2h-0.5V-7V-10.5 M19-3H5C3.896-3,3-3.896,3-5v-14c0-1.104,0.896-2,2-2h14c1.104,0,2,0.896,2,2v14C21-3.896,20.104-3,19-3
				L19-3z M7-13v2h4v4h2v-4h4v-2h-4v-4h-2v4H7L7-13z"/>
		</g>
	</g>
	<path fill="#FFFFFF" fill-opacity="0.2" d="M13-7h-2v-0.5h2V-7z M13-11.5h4v0.5h-4V-11.5z M11-11H7v-0.5h4V-11z M19-21H5
		c-1.104,0-2,0.896-2,2v-0.5c0-1.104,0.896-2,2-2h14c1.104,0,2,0.896,2,2v0.5C21-20.104,20.104-21,19-21z"/>
	<polygon fill="none" points="24,-24 0,-24 0,0 24,0 	"/>
	<g>
		<g opacity="0.08">
			<path d="M11-17.5h2v0.5h-2V-17.5z M11-13H7v-0.5h4V-13z M19-3H5C3.896-3,3-3.896,3-5v-0.5c0,1.104,0.896,2,2,2h14
				c1.104,0,2-0.896,2-2V-5C21-3.896,20.104-3,19-3z M13-13.5h4v0.5h-4V-13.5z"/>
		</g>
	</g>
</symbol>
<symbol  id="ic_x5F_add_x5F_darkreg" viewBox="0 -24 24 24">
	<g>
		<g>
			<linearGradient id="SVGID_2_" gradientUnits="userSpaceOnUse" x1="12" y1="-21" x2="12" y2="-3">
				<stop  offset="0" style="stop-color:#000000;stop-opacity:0.7"/>
				<stop  offset="1" style="stop-color:#000000;stop-opacity:0.6"/>
			</linearGradient>
			<path fill="url(#SVGID_2_)" d="M19-3H5C3.896-3,3-3.896,3-5v-14c0-1.104,0.896-2,2-2h14c1.104,0,2,0.896,2,2v14
				C21-3.896,20.104-3,19-3z M17-13h-4v-4h-2v4H7v2h4v4h2v-4h4V-13z"/>
		</g>
		<g opacity="0.05">
			<path d="M19-3.5c0.827,0,1.5-0.673,1.5-1.5v-14c0-0.827-0.673-1.5-1.5-1.5H5c-0.827,0-1.5,0.673-1.5,1.5v14
				c0,0.827,0.673,1.5,1.5,1.5H19 M10.5-10.5H7H6.5V-11v-2v-0.5H7h3.5V-17v-0.5H11h2h0.5v0.5v3.5H17h0.5v0.5v2v0.5H17h-3.5V-7v0.5
				H13h-2h-0.5V-7V-10.5 M19-3H5C3.896-3,3-3.896,3-5v-14c0-1.104,0.896-2,2-2h14c1.104,0,2,0.896,2,2v14C21-3.896,20.104-3,19-3
				L19-3z M7-13v2h4v4h2v-4h4v-2h-4v-4h-2v4H7L7-13z"/>
		</g>
	</g>
	<path fill="#FFFFFF" fill-opacity="0.3" d="M13-7h-2v-0.5h2V-7z M13-11.5h4v0.5h-4V-11.5z M11-11H7v-0.5h4V-11z M19-21H5
		c-1.104,0-2,0.896-2,2v-0.5c0-1.104,0.896-2,2-2h14c1.104,0,2,0.896,2,2v0.5C21-20.104,20.104-21,19-21z"/>
	<polygon fill="none" points="24,-24 0,-24 0,0 24,0 	"/>
	<g>
		<g opacity="0.3">
			<path d="M11-17.5h2v0.5h-2V-17.5z M11-13H7v-0.5h4V-13z M19-3H5C3.896-3,3-3.896,3-5v-0.5c0,1.104,0.896,2,2,2h14
				c1.104,0,2-0.896,2-2V-5C21-3.896,20.104-3,19-3z M13-13.5h4v0.5h-4V-13.5z"/>
		</g>
	</g>
</symbol>
<symbol  id="ic_x5F_add_x5F_flat" viewBox="0 -24 24 24">
	<g>
		<path fill="#231F20" d="M19-3H5C3.896-3,3-3.896,3-5v-14c0-1.104,0.896-2,2-2h14c1.104,0,2,0.896,2,2v14C21-3.896,20.104-3,19-3z
			 M17-13h-4v-4h-2v4H7v2h4v4h2v-4h4V-13z"/>
	</g>
	<polygon fill="none" points="24,-24 0,-24 0,0 24,0 	"/>
</symbol>
<symbol  id="ic_x5F_add_x5F_lightalt" viewBox="0 -24 24 24">
	<g>
		<g opacity="0.25">
			<linearGradient id="SVGID_3_" gradientUnits="userSpaceOnUse" x1="12" y1="-2.8594" x2="12" y2="-21.441">
				<stop  offset="0" style="stop-color:#FFFFFF;stop-opacity:0.9"/>
				<stop  offset="1" style="stop-color:#FFFFFF;stop-opacity:0.85"/>
			</linearGradient>
			<path fill="url(#SVGID_3_)" d="M19-3H5C3.896-3,3-3.896,3-5v-14c0-1.104,0.896-2,2-2h14c1.104,0,2,0.896,2,2v14
				C21-3.896,20.104-3,19-3z M17-13h-4v-4h-2v4H7v2h4v4h2v-4h4V-13z"/>
		</g>
		<g opacity="0.05">
			<path fill="#FFFFFF" d="M19-3.5c0.827,0,1.5-0.673,1.5-1.5v-14c0-0.827-0.673-1.5-1.5-1.5H5c-0.827,0-1.5,0.673-1.5,1.5v14
				c0,0.827,0.673,1.5,1.5,1.5H19 M10.5-10.5H7H6.5V-11v-2v-0.5H7h3.5V-17v-0.5H11h2h0.5v0.5v3.5H17h0.5v0.5v2v0.5H17h-3.5V-7v0.5
				H13h-2h-0.5V-7V-10.5 M19-3H5C3.896-3,3-3.896,3-5v-14c0-1.104,0.896-2,2-2h14c1.104,0,2,0.896,2,2v14C21-3.896,20.104-3,19-3
				L19-3z M7-13v2h4v4h2v-4h4v-2h-4v-4h-2v4H7L7-13z"/>
		</g>
	</g>
	<g>
		<g opacity="0.1">
			<path d="M11-17h2v0.5h-2V-17z M11-12.5H7V-13h4V-12.5z M13-13h4v0.5h-4V-13z M19-2.5H5c-1.104,0-2-0.896-2-2V-5
				c0,1.104,0.896,2,2,2h14c1.104,0,2-0.896,2-2v0.5C21-3.396,20.104-2.5,19-2.5z"/>
		</g>
	</g>
	<polygon fill="none" points="24,-24 0,-24 0,0 24,0 	"/>
</symbol>
<symbol  id="ic_x5F_add_x5F_lightreg" viewBox="0 -24 24 24">
	<g>
		<linearGradient id="SVGID_4_" gradientUnits="userSpaceOnUse" x1="12" y1="-2.8594" x2="12" y2="-21.441">
			<stop  offset="0" style="stop-color:#FFFFFF;stop-opacity:0.9"/>
			<stop  offset="1" style="stop-color:#FFFFFF;stop-opacity:0.85"/>
		</linearGradient>
		<path fill="url(#SVGID_4_)" d="M19-3H5C3.896-3,3-3.896,3-5v-14c0-1.104,0.896-2,2-2h14c1.104,0,2,0.896,2,2v14
			C21-3.896,20.104-3,19-3z M17-13h-4v-4h-2v4H7v2h4v4h2v-4h4V-13z"/>
		<g opacity="0.05">
			<path fill="#FFFFFF" d="M19-3.5c0.827,0,1.5-0.673,1.5-1.5v-14c0-0.827-0.673-1.5-1.5-1.5H5c-0.827,0-1.5,0.673-1.5,1.5v14
				c0,0.827,0.673,1.5,1.5,1.5H19 M10.5-10.5H7H6.5V-11v-2v-0.5H7h3.5V-17v-0.5H11h2h0.5v0.5v3.5H17h0.5v0.5v2v0.5H17h-3.5V-7v0.5
				H13h-2h-0.5V-7V-10.5 M19-3H5C3.896-3,3-3.896,3-5v-14c0-1.104,0.896-2,2-2h14c1.104,0,2,0.896,2,2v14C21-3.896,20.104-3,19-3
				L19-3z M7-13v2h4v4h2v-4h4v-2h-4v-4h-2v4H7L7-13z"/>
		</g>
	</g>
	<g>
		<g opacity="0.2">
			<path d="M11-17h2v0.5h-2V-17z M11-12.5H7V-13h4V-12.5z M13-13h4v0.5h-4V-13z M19-2.5H5c-1.104,0-2-0.896-2-2V-5
				c0,1.104,0.896,2,2,2h14c1.104,0,2-0.896,2-2v0.5C21-3.396,20.104-2.5,19-2.5z"/>
		</g>
	</g>
	<polygon fill="none" points="24,-24 0,-24 0,0 24,0 	"/>
</symbol>
<symbol  id="ic_x5F_arrow_x5F_dropdown_x5F_darkalt" viewBox="0 -24 24 24">
	<g>
		
			<linearGradient id="SVGID_5_" gradientUnits="userSpaceOnUse" x1="12" y1="105" x2="12" y2="110" gradientTransform="matrix(1 0 0 1 0 -120)">
			<stop  offset="0" style="stop-color:#000000;stop-opacity:0.7"/>
			<stop  offset="1" style="stop-color:#000000;stop-opacity:0.6"/>
		</linearGradient>
		<polygon opacity="0.25" fill="url(#SVGID_5_)" points="7,-10 12,-15 17,-10 		"/>
		<g opacity="0.03">
			<path d="M15.793-10.5L12-14.293L8.207-10.5H15.793 M17-10H7l5-5L17-10L17-10z"/>
		</g>
	</g>
	<polygon fill="#FFFFFF" fill-opacity="0.2" points="12,-15 7,-10 7,-10.5 12,-15.5 17,-10.5 17,-10 	"/>
	<polygon fill="none" points="24,-24 0,-24 0,0 24,0 	"/>
	<g>
		<polygon opacity="0.08" points="17,-10 7,-10 7.5,-10.5 16.5,-10.5 		"/>
	</g>
</symbol>
<symbol  id="ic_x5F_arrow_x5F_dropdown_x5F_darkreg" viewBox="0 -24 24 24">
	<g>
		
			<linearGradient id="SVGID_6_" gradientUnits="userSpaceOnUse" x1="12" y1="110" x2="12" y2="105" gradientTransform="matrix(1 0 0 1 0 -120)">
			<stop  offset="0" style="stop-color:#000000;stop-opacity:0.67"/>
			<stop  offset="1" style="stop-color:#000000;stop-opacity:0.75"/>
		</linearGradient>
		<polygon opacity="0.5" fill="url(#SVGID_6_)" points="7,-10 12,-15 17,-10 		"/>
		<g opacity="0.05">
			<path d="M15.793-10.5L12-14.293L8.207-10.5H15.793 M17-10H7l5-5L17-10L17-10z"/>
		</g>
	</g>
	<polygon fill="#FFFFFF" fill-opacity="0.3" points="12,-15 7,-10 7,-10.5 12,-15.5 17,-10.5 17,-10 	"/>
	<polygon fill="none" points="24,-24 0,-24 0,0 24,0 	"/>
	<g>
		<polygon opacity="0.2" points="17,-10 7,-10 7.5,-10.5 16.5,-10.5 		"/>
	</g>
</symbol>
<symbol  id="ic_x5F_arrow_x5F_dropdown_x5F_flat" viewBox="0 -24 24 24">
	<polygon fill="#231F20" points="7,-10 12,-15 17,-10 	"/>
	<polygon fill="none" points="24,-24 0,-24 0,0 24,0 	"/>
</symbol>
<symbol  id="ic_x5F_arrow_x5F_dropdown_x5F_lightalt" viewBox="0 -24 24 24">
	<g>
		
			<linearGradient id="SVGID_7_" gradientUnits="userSpaceOnUse" x1="12" y1="110.0391" x2="12" y2="104.8775" gradientTransform="matrix(1 0 0 1 0 -120)">
			<stop  offset="0" style="stop-color:#FFFFFF;stop-opacity:0.9"/>
			<stop  offset="1" style="stop-color:#FFFFFF;stop-opacity:0.85"/>
		</linearGradient>
		<polygon opacity="0.25" fill="url(#SVGID_7_)" points="7,-10 12,-15 17,-10 		"/>
		<g opacity="0.05">
			<path fill="#FFFFFF" d="M15.793-10.5L12-14.293L8.207-10.5H15.793 M17-10H7l5-5L17-10L17-10z"/>
		</g>
	</g>
	<g>
		<polygon opacity="0.1" points="7,-10 7,-9.5 17,-9.5 17,-10 		"/>
	</g>
	<polygon fill="none" points="24,-24 0,-24 0,0 24,0 	"/>
</symbol>
<symbol  id="ic_x5F_arrow_x5F_dropdown_x5F_lightreg" viewBox="0 -24 24 24">
	<g>
		
			<linearGradient id="SVGID_8_" gradientUnits="userSpaceOnUse" x1="12" y1="110.0391" x2="12" y2="104.8775" gradientTransform="matrix(1 0 0 1 0 -120)">
			<stop  offset="0" style="stop-color:#FFFFFF;stop-opacity:0.9"/>
			<stop  offset="1" style="stop-color:#FFFFFF;stop-opacity:0.85"/>
		</linearGradient>
		<polygon opacity="0.5" fill="url(#SVGID_8_)" points="7,-10 12,-15 17,-10 		"/>
		<g opacity="0.05">
			<path fill="#FFFFFF" d="M15.793-10.5L12-14.293L8.207-10.5H15.793 M17-10H7l5-5L17-10L17-10z"/>
		</g>
	</g>
	<g>
		<polygon opacity="0.2" points="7,-10 7,-9.5 17,-9.5 17,-10 		"/>
	</g>
	<polygon fill="none" points="24,-24 0,-24 0,0 24,0 	"/>
</symbol>
<symbol  id="ic_x5F_close_x5F_darkalt" viewBox="0 -24 24 24">
	<g>
		<linearGradient id="SVGID_9_" gradientUnits="userSpaceOnUse" x1="12" y1="-19" x2="12" y2="-5">
			<stop  offset="0" style="stop-color:#000000;stop-opacity:0.7"/>
			<stop  offset="1" style="stop-color:#000000;stop-opacity:0.6"/>
		</linearGradient>
		<polygon opacity="0.25" fill="url(#SVGID_9_)" points="19,-6.414 17.586,-5 12,-10.586 6.414,-5 5,-6.414 10.586,-12 5,-17.586 
			6.414,-19 12,-13.414 17.586,-19 19,-17.586 13.414,-12 		"/>
		<g opacity="0.03">
			<path d="M17.586-5.707l0.707-0.707l-5.232-5.232L12.707-12l0.354-0.354l5.232-5.232l-0.707-0.707l-5.232,5.232L12-12.707
				l-0.354-0.354l-5.232-5.232l-0.707,0.707l5.232,5.232L11.293-12l-0.354,0.354L5.707-6.414l0.707,0.707l5.232-5.232L12-11.293
				l0.354,0.354L17.586-5.707 M17.586-5L12-10.586L6.414-5L5-6.414L10.586-12L5-17.586L6.414-19L12-13.414L17.586-19L19-17.586
				L13.414-12L19-6.414L17.586-5L17.586-5z"/>
		</g>
	</g>
	<path fill="#FFFFFF" fill-opacity="0.2" d="M19-6.914v0.5L13.414-12l0.25-0.25L19-6.914z M10.586-12L5-6.414v-0.5l5.336-5.336
		L10.586-12z M17.586-19L12-13.414L6.414-19L5-17.586v-0.5L6.414-19.5L12-13.914l5.586-5.586L19-18.086v0.5L17.586-19z"/>
	<polygon fill="none" points="24,-24 0,-24 0,0 24,0 	"/>
	<g>
		<g opacity="0.08">
			<path d="M5-17.586l0.25-0.25l5.336,5.336v0.5L5-17.586z M18.75-6.664L19-6.414L17.586-5L12-10.586L6.414-5L5-6.414l0.25-0.25
				L6.414-5.5L12-11.086L17.586-5.5L18.75-6.664z M13.414-12.5l5.336-5.336l0.25,0.25L13.414-12V-12.5z"/>
		</g>
	</g>
</symbol>
<symbol  id="ic_x5F_close_x5F_darkreg" viewBox="0 -24 24 24">
	<g>
		<linearGradient id="SVGID_10_" gradientUnits="userSpaceOnUse" x1="12" y1="-19" x2="12" y2="-5">
			<stop  offset="0" style="stop-color:#000000;stop-opacity:0.7"/>
			<stop  offset="1" style="stop-color:#000000;stop-opacity:0.6"/>
		</linearGradient>
		<polygon fill="url(#SVGID_10_)" points="19,-6.414 17.586,-5 12,-10.586 6.414,-5 5,-6.414 10.586,-12 5,-17.586 6.414,-19 
			12,-13.414 17.586,-19 19,-17.586 13.414,-12 		"/>
		<g opacity="0.05">
			<path d="M17.586-5.707l0.707-0.707l-5.232-5.232L12.707-12l0.354-0.354l5.232-5.232l-0.707-0.707l-5.232,5.232L12-12.707
				l-0.354-0.354l-5.232-5.232l-0.707,0.707l5.232,5.232L11.293-12l-0.354,0.354L5.707-6.414l0.707,0.707l5.232-5.232L12-11.293
				l0.354,0.354L17.586-5.707 M17.586-5L12-10.586L6.414-5L5-6.414L10.586-12L5-17.586L6.414-19L12-13.414L17.586-19L19-17.586
				L13.414-12L19-6.414L17.586-5L17.586-5z"/>
		</g>
	</g>
	<path fill="#FFFFFF" fill-opacity="0.3" d="M19-6.914v0.5L13.414-12l0.25-0.25L19-6.914z M10.586-12L5-6.414v-0.5l5.336-5.336
		L10.586-12z M17.586-19L12-13.414L6.414-19L5-17.586v-0.5L6.414-19.5L12-13.914l5.586-5.586L19-18.086v0.5L17.586-19z"/>
	<polygon fill="none" points="24,-24 0,-24 0,0 24,0 	"/>
	<g>
		<g opacity="0.3">
			<path d="M5-17.586l0.25-0.25l5.336,5.336v0.5L5-17.586z M18.75-6.664L19-6.414L17.586-5L12-10.586L6.414-5L5-6.414l0.25-0.25
				L6.414-5.5L12-11.086L17.586-5.5L18.75-6.664z M13.414-12.5l5.336-5.336l0.25,0.25L13.414-12V-12.5z"/>
		</g>
	</g>
</symbol>
<symbol  id="ic_x5F_close_x5F_flat" viewBox="0 -24 24 24">
	<g>
		<polygon fill="#231F20" points="19,-6.414 17.586,-5 12,-10.586 6.414,-5 5,-6.414 10.586,-12 5,-17.586 6.414,-19 12,-13.414 
			17.586,-19 19,-17.586 13.414,-12 		"/>
	</g>
	<polygon fill="none" points="24,-24 0,-24 0,0 24,0 	"/>
</symbol>
<symbol  id="ic_x5F_close_x5F_lightalt" viewBox="0 -24 24 24">
	<g>
		<linearGradient id="SVGID_11_" gradientUnits="userSpaceOnUse" x1="12" y1="-4.8906" x2="12" y2="-19.343">
			<stop  offset="0" style="stop-color:#FFFFFF;stop-opacity:0.9"/>
			<stop  offset="1" style="stop-color:#FFFFFF;stop-opacity:0.85"/>
		</linearGradient>
		<polygon opacity="0.25" fill="url(#SVGID_11_)" points="19,-6.414 17.586,-5 12,-10.586 6.414,-5 5,-6.414 10.586,-12 5,-17.586 
			6.414,-19 12,-13.414 17.586,-19 19,-17.586 13.414,-12 		"/>
		<g opacity="0.05">
			<path fill="#FFFFFF" d="M17.586-5.707l0.707-0.707l-5.232-5.232L12.707-12l0.354-0.354l5.232-5.232l-0.707-0.707l-5.232,5.232
				L12-12.707l-0.354-0.354l-5.232-5.232l-0.707,0.707l5.232,5.232L11.293-12l-0.354,0.354L5.707-6.414l0.707,0.707l5.232-5.232
				L12-11.293l0.354,0.354L17.586-5.707 M17.586-5L12-10.586L6.414-5L5-6.414L10.586-12L5-17.586L6.414-19L12-13.414L17.586-19
				L19-17.586L13.414-12L19-6.414L17.586-5L17.586-5z"/>
		</g>
	</g>
	<g>
		<g opacity="0.1">
			<path d="M5-17.086v-0.5L10.586-12l-0.25,0.25L5-17.086z M17.586-4.5L12-10.086L6.414-4.5L5-5.914v-0.5L6.414-5L12-10.586
				L17.586-5L19-6.414v0.5L17.586-4.5z M13.414-12L19-17.586v0.5l-5.336,5.336L13.414-12z"/>
		</g>
	</g>
	<polygon fill="none" points="24,-24 0,-24 0,0 24,0 	"/>
</symbol>
<symbol  id="ic_x5F_close_x5F_lightreg" viewBox="0 -24 24 24">
	<g>
		<linearGradient id="SVGID_12_" gradientUnits="userSpaceOnUse" x1="12" y1="-4.8906" x2="12" y2="-19.343">
			<stop  offset="0" style="stop-color:#FFFFFF;stop-opacity:0.9"/>
			<stop  offset="1" style="stop-color:#FFFFFF;stop-opacity:0.85"/>
		</linearGradient>
		<polygon fill="url(#SVGID_12_)" points="19,-6.414 17.586,-5 12,-10.586 6.414,-5 5,-6.414 10.586,-12 5,-17.586 6.414,-19 
			12,-13.414 17.586,-19 19,-17.586 13.414,-12 		"/>
		<g opacity="0.05">
			<path fill="#FFFFFF" d="M17.586-5.707l0.707-0.707l-5.232-5.232L12.707-12l0.354-0.354l5.232-5.232l-0.707-0.707l-5.232,5.232
				L12-12.707l-0.354-0.354l-5.232-5.232l-0.707,0.707l5.232,5.232L11.293-12l-0.354,0.354L5.707-6.414l0.707,0.707l5.232-5.232
				L12-11.293l0.354,0.354L17.586-5.707 M17.586-5L12-10.586L6.414-5L5-6.414L10.586-12L5-17.586L6.414-19L12-13.414L17.586-19
				L19-17.586L13.414-12L19-6.414L17.586-5L17.586-5z"/>
		</g>
	</g>
	<g>
		<g opacity="0.2">
			<path d="M5-17.086v-0.5L10.586-12l-0.25,0.25L5-17.086z M17.586-4.5L12-10.086L6.414-4.5L5-5.914v-0.5L6.414-5L12-10.586
				L17.586-5L19-6.414v0.5L17.586-4.5z M13.414-12L19-17.586v0.5l-5.336,5.336L13.414-12z"/>
		</g>
	</g>
	<polygon fill="none" points="24,-24 0,-24 0,0 24,0 	"/>
</symbol>
<symbol  id="ic_x5F_delete_x5F_darkalt" viewBox="0 -24 24 24">
	<g>
		<g opacity="0.08">
			<path d="M6-7.5h12V-7H6V-7.5z M18-4h-3.5l-1,1h-3l-1-1H6C5.447-4,5-4.447,5-5v-0.5c0,0.553,0.447,1,1,1h3.5l1,1h3l1-1H18
				c0.552,0,1-0.447,1-1V-5C19-4.447,18.552-4,18-4z"/>
		</g>
	</g>
	<polygon fill="none" points="24,-24 0,-24 0,0 24,0 	"/>
	<path fill="#FFFFFF" fill-opacity="0.3" d="M16-21H8c-1.104,0-2,0.896-2,2v-0.5c0-1.104,0.896-2,2-2h8c1.104,0,2,0.896,2,2v0.5
		C18-20.104,17.104-21,16-21z M5-6v-0.5h14V-6H5z"/>
	<g>
		<g opacity="0.25">
			<linearGradient id="SVGID_13_" gradientUnits="userSpaceOnUse" x1="12" y1="-21" x2="12" y2="-3">
				<stop  offset="0" style="stop-color:#000000;stop-opacity:0.7"/>
				<stop  offset="1" style="stop-color:#000000;stop-opacity:0.6"/>
			</linearGradient>
			<path fill="url(#SVGID_13_)" d="M6-19c0-1.104,0.896-2,2-2h8c1.104,0,2,0.896,2,2v12H6V-19z M18-4h-3.5l-1,1h-3l-1-1H6
				C5.447-4,5-4.447,5-5v-1h14v1C19-4.447,18.552-4,18-4z"/>
		</g>
		<g opacity="0.03">
			<path d="M13.293-3.5l0.854-0.854L14.293-4.5H14.5H18c0.276,0,0.5-0.225,0.5-0.5v-0.5h-13V-5c0,0.275,0.224,0.5,0.5,0.5h3.5h0.207
				l0.146,0.146L10.707-3.5H13.293 M17.5-7.5V-19c0-0.827-0.673-1.5-1.5-1.5H8c-0.827,0-1.5,0.673-1.5,1.5v11.5H17.5 M13.5-3h-3
				l-1-1H6C5.447-4,5-4.447,5-5v-1h14v1c0,0.553-0.448,1-1,1h-3.5L13.5-3L13.5-3z M18-7H6v-12c0-1.104,0.896-2,2-2h8
				c1.104,0,2,0.896,2,2V-7L18-7z"/>
		</g>
	</g>
</symbol>
<symbol  id="ic_x5F_delete_x5F_darkreg" viewBox="0 -24 24 24">
	<g>
		<g>
			<linearGradient id="SVGID_14_" gradientUnits="userSpaceOnUse" x1="12" y1="-21" x2="12" y2="-3">
				<stop  offset="0" style="stop-color:#000000;stop-opacity:0.7"/>
				<stop  offset="1" style="stop-color:#000000;stop-opacity:0.6"/>
			</linearGradient>
			<path fill="url(#SVGID_14_)" d="M6-19c0-1.104,0.896-2,2-2h8c1.104,0,2,0.896,2,2v12H6V-19z M18-4h-3.5l-1,1h-3l-1-1H6
				C5.447-4,5-4.447,5-5v-1h14v1C19-4.447,18.552-4,18-4z"/>
		</g>
		<g opacity="0.05">
			<path d="M13.293-3.5l0.854-0.854L14.293-4.5H14.5H18c0.276,0,0.5-0.225,0.5-0.5v-0.5h-13V-5c0,0.275,0.224,0.5,0.5,0.5h3.5h0.207
				l0.146,0.146L10.707-3.5H13.293 M17.5-7.5V-19c0-0.827-0.673-1.5-1.5-1.5H8c-0.827,0-1.5,0.673-1.5,1.5v11.5H17.5 M13.5-3h-3
				l-1-1H6C5.447-4,5-4.447,5-5v-1h14v1c0,0.553-0.448,1-1,1h-3.5L13.5-3L13.5-3z M18-7H6v-12c0-1.104,0.896-2,2-2h8
				c1.104,0,2,0.896,2,2V-7L18-7z"/>
		</g>
	</g>
	<g>
		<g opacity="0.3">
			<path d="M6-7.5h12V-7H6V-7.5z M18-4h-3.5l-1,1h-3l-1-1H6C5.447-4,5-4.447,5-5v-0.5c0,0.553,0.447,1,1,1h3.5l1,1h3l1-1H18
				c0.552,0,1-0.447,1-1V-5C19-4.447,18.552-4,18-4z"/>
		</g>
	</g>
	<polygon fill="none" points="24,-24 0,-24 0,0 24,0 	"/>
	<path fill="#FFFFFF" fill-opacity="0.3" d="M16-21H8c-1.104,0-2,0.896-2,2v-0.5c0-1.104,0.896-2,2-2h8c1.104,0,2,0.896,2,2v0.5
		C18-20.104,17.104-21,16-21z M5-6v-0.5h14V-6H5z"/>
</symbol>
<symbol  id="ic_x5F_delete_x5F_flat" viewBox="0 -24 24 24">
	<path fill="#231F20" d="M6-19c0-1.104,0.896-2,2-2h8c1.104,0,2,0.896,2,2v12H6V-19z M18-4h-3.5l-1,1h-3l-1-1H6C5.447-4,5-4.447,5-5
		v-1h14v1C19-4.447,18.552-4,18-4z"/>
	<polygon fill="none" points="24,-24 0,-24 0,0 24,0 	"/>
</symbol>
<symbol  id="ic_x5F_delete_x5F_lightalt" viewBox="0 -24 24 24">
	<g>
		<linearGradient id="SVGID_15_" gradientUnits="userSpaceOnUse" x1="12" y1="-2.8594" x2="12" y2="-21.441">
			<stop  offset="0" style="stop-color:#FFFFFF;stop-opacity:0.9"/>
			<stop  offset="1" style="stop-color:#FFFFFF;stop-opacity:0.85"/>
		</linearGradient>
		<path fill="url(#SVGID_15_)" d="M6-19c0-1.104,0.895-2,2-2h8c1.104,0,2,0.896,2,2v12H6V-19z M18-4h-3.5l-1,1h-3l-1-1H6
			C5.447-4,5-4.447,5-5v-1h14v1C19-4.447,18.551-4,18-4z"/>
		<g opacity="0.05">
			<path fill="#FFFFFF" d="M13.293-3.5l0.854-0.854L14.293-4.5H14.5H18c0.276,0,0.5-0.225,0.5-0.5v-0.5h-13V-5
				c0,0.275,0.224,0.5,0.5,0.5h3.5h0.207l0.146,0.146L10.707-3.5H13.293 M17.5-7.5V-19c0-0.827-0.673-1.5-1.5-1.5H8
				c-0.827,0-1.5,0.673-1.5,1.5v11.5H17.5 M13.5-3h-3l-1-1H6C5.447-4,5-4.447,5-5v-1h14v1c0,0.553-0.449,1-1,1h-3.5L13.5-3L13.5-3z
				 M18-7H6v-12c0-1.104,0.895-2,2-2h8c1.104,0,2,0.896,2,2V-7L18-7z"/>
		</g>
	</g>
	<g>
		<g opacity="0.1">
			<path d="M6-7h12v0.5H6V-7z M18-3.5h-3.5l-1,1h-3l-1-1H6c-0.553,0-1-0.447-1-1V-5c0,0.553,0.447,1,1,1h3.5l1,1h3l1-1H18
				c0.552,0,1-0.447,1-1v0.5C19-3.947,18.552-3.5,18-3.5z"/>
		</g>
	</g>
	<polygon fill="none" points="24,-24 0,-24 0,0 24,0 	"/>
</symbol>
<symbol  id="ic_x5F_delete_x5F_lightreg" viewBox="0 -24 24 24">
	<g>
		<linearGradient id="SVGID_16_" gradientUnits="userSpaceOnUse" x1="12.0005" y1="-2.8594" x2="12.0005" y2="-21.441">
			<stop  offset="0" style="stop-color:#FFFFFF;stop-opacity:0.9"/>
			<stop  offset="1" style="stop-color:#FFFFFF;stop-opacity:0.85"/>
		</linearGradient>
		<path fill="url(#SVGID_16_)" d="M6-19c0-1.104,0.896-2,2-2h8c1.104,0,2,0.896,2,2v12H6V-19z M18-4h-3.5l-1,1h-3l-1-1H6
			C5.448-4,5-4.447,5-5v-1h14v1C19-4.447,18.552-4,18-4z"/>
		<g opacity="0.05">
			<path fill="#FFFFFF" d="M13.293-3.5l0.854-0.854L14.293-4.5H14.5H18c0.276,0,0.5-0.225,0.5-0.5v-0.5h-13V-5
				c0,0.275,0.224,0.5,0.5,0.5h3.5h0.207l0.146,0.146L10.708-3.5H13.293 M17.5-7.5V-19c0-0.827-0.673-1.5-1.5-1.5H8
				c-0.827,0-1.5,0.673-1.5,1.5v11.5H17.5 M13.5-3h-3l-1-1H6C5.448-4,5-4.447,5-5v-1h14v1c0,0.553-0.448,1-1,1h-3.5L13.5-3L13.5-3z
				 M18-7H6v-12c0-1.104,0.896-2,2-2h8c1.104,0,2,0.896,2,2V-7L18-7z"/>
		</g>
	</g>
	<g>
		<g opacity="0.2">
			<path d="M6-7h12v0.5H6V-7z M18-3.5h-3.5l-1,1h-3l-1-1H6c-0.553,0-1-0.447-1-1V-5c0,0.553,0.447,1,1,1h3.5l1,1h3l1-1H18
				c0.552,0,1-0.447,1-1v0.5C19-3.947,18.552-3.5,18-3.5z"/>
		</g>
	</g>
	<polygon fill="none" points="24,-24 0,-24 0,0 24,0 	"/>
</symbol>
<symbol  id="ic_x5F_drawer_x5F_darkalt" viewBox="0 -24 24 24">
	<g>
		<g opacity="0.25">
			
				<linearGradient id="SVGID_17_" gradientUnits="userSpaceOnUse" x1="12" y1="-319" x2="12" y2="-305" gradientTransform="matrix(1 0 0 1 0 300)">
				<stop  offset="0" style="stop-color:#000000;stop-opacity:0.7"/>
				<stop  offset="1" style="stop-color:#000000;stop-opacity:0.6"/>
			</linearGradient>
			<path fill="url(#SVGID_17_)" d="M20-5H4C3.447-5,3-5.447,3-6v-12c0-0.553,0.447-1,1-1h16c0.553,0,1,0.447,1,1v12
				C21-5.447,20.553-5,20-5z M19-17h-5v10h5V-17z"/>
		</g>
		<g opacity="0.03">
			<path d="M20-5.5c0.276,0,0.5-0.225,0.5-0.5v-12c0-0.275-0.224-0.5-0.5-0.5H4c-0.276,0-0.5,0.225-0.5,0.5v12
				c0,0.275,0.224,0.5,0.5,0.5H20 M13.5-17.5H14h5h0.5v0.5v10v0.5H19h-5h-0.5V-7v-10V-17.5 M20-5H4C3.447-5,3-5.447,3-6v-12
				c0-0.553,0.447-1,1-1h16c0.553,0,1,0.447,1,1v12C21-5.447,20.553-5,20-5L20-5z M14-17v10h5v-10H14L14-17z"/>
		</g>
	</g>
	<polygon fill="none" points="24,-24 0,-24 0,0 24,0 	"/>
	<path fill="#FFFFFF" fill-opacity="0.2" d="M19-7h-5v-0.5h5V-7z M20-19H4c-0.553,0-1,0.447-1,1v-0.5c0-0.553,0.447-1,1-1h16
		c0.553,0,1,0.447,1,1v0.5C21-18.553,20.553-19,20-19z"/>
	<g>
		<g opacity="0.08">
			<path d="M14-17.5h5v0.5h-5V-17.5z M20-5H4C3.447-5,3-5.447,3-6v-0.5c0,0.553,0.447,1,1,1h16c0.553,0,1-0.447,1-1V-6
				C21-5.447,20.553-5,20-5z"/>
		</g>
	</g>
</symbol>
<symbol  id="ic_x5F_drawer_x5F_darkreg" viewBox="0 -24 24 24">
	<g>
		<g opacity="0.5">
			
				<linearGradient id="SVGID_18_" gradientUnits="userSpaceOnUse" x1="12" y1="-305" x2="12" y2="-319" gradientTransform="matrix(1 0 0 1 0 300)">
				<stop  offset="0" style="stop-color:#000000;stop-opacity:0.67"/>
				<stop  offset="1" style="stop-color:#000000;stop-opacity:0.75"/>
			</linearGradient>
			<path fill="url(#SVGID_18_)" d="M20-5H4C3.447-5,3-5.447,3-6v-12c0-0.553,0.447-1,1-1h16c0.553,0,1,0.447,1,1v12
				C21-5.447,20.553-5,20-5z M19-17h-5v10h5V-17z"/>
		</g>
		<g opacity="0.05">
			<path d="M20-5.5c0.276,0,0.5-0.225,0.5-0.5v-12c0-0.275-0.224-0.5-0.5-0.5H4c-0.276,0-0.5,0.225-0.5,0.5v12
				c0,0.275,0.224,0.5,0.5,0.5H20 M14-17.5h5c0.276,0,0.5,0.224,0.5,0.5v10c0,0.276-0.224,0.5-0.5,0.5h-5
				c-0.276,0-0.5-0.224-0.5-0.5v-10C13.5-17.276,13.724-17.5,14-17.5 M20-5H4C3.447-5,3-5.447,3-6v-12c0-0.553,0.447-1,1-1h16
				c0.553,0,1,0.447,1,1v12C21-5.447,20.553-5,20-5L20-5z M14-17v10h5v-10H14L14-17z"/>
		</g>
	</g>
	<path fill="#FFFFFF" fill-opacity="0.2" d="M19-7h-5v-0.5h5V-7z M20-19H4c-0.553,0-1,0.447-1,1v-0.5c0-0.553,0.447-1,1-1h16
		c0.553,0,1,0.447,1,1v0.5C21-18.553,20.553-19,20-19z"/>
	<polygon fill="none" points="24,-24 0,-24 0,0 24,0 	"/>
	<g>
		<g opacity="0.2">
			<path d="M14-17.5h5v0.5h-5V-17.5z M20-5H4C3.447-5,3-5.447,3-6v-0.5c0,0.553,0.447,1,1,1h16c0.553,0,1-0.447,1-1V-6
				C21-5.447,20.553-5,20-5z"/>
		</g>
	</g>
</symbol>
<symbol  id="ic_x5F_drawer_x5F_flat" viewBox="0 -24 24 24">
	<polygon fill="none" points="24,-24 0,-24 0,0 24,0 	"/>
	<path fill="#231F20" d="M20-5H4C3.447-5,3-5.447,3-6v-12c0-0.553,0.447-1,1-1h16c0.553,0,1,0.447,1,1v12C21-5.447,20.553-5,20-5z
		 M19-17h-5v10h5V-17z"/>
</symbol>
<symbol  id="ic_x5F_drawer_x5F_lightalt" viewBox="0 -24 24 24">
	<g>
		<g opacity="0.25">
			
				<linearGradient id="SVGID_19_" gradientUnits="userSpaceOnUse" x1="12" y1="-304.8906" x2="12" y2="-319.343" gradientTransform="matrix(1 0 0 1 0 300)">
				<stop  offset="0" style="stop-color:#FFFFFF;stop-opacity:0.9"/>
				<stop  offset="1" style="stop-color:#FFFFFF;stop-opacity:0.85"/>
			</linearGradient>
			<path fill="url(#SVGID_19_)" d="M20-5H4C3.447-5,3-5.447,3-6v-12c0-0.553,0.447-1,1-1h16c0.553,0,1,0.447,1,1v12
				C21-5.447,20.553-5,20-5z M19-17h-5v10h5V-17z"/>
		</g>
		<g opacity="0.05">
			<path fill="#FFFFFF" d="M20-5.5c0.276,0,0.5-0.225,0.5-0.5v-12c0-0.275-0.224-0.5-0.5-0.5H4c-0.276,0-0.5,0.225-0.5,0.5v12
				c0,0.275,0.224,0.5,0.5,0.5H20 M13.5-17.5H14h5h0.5v0.5v10v0.5H19h-5h-0.5V-7v-10V-17.5 M20-5H4C3.447-5,3-5.447,3-6v-12
				c0-0.553,0.447-1,1-1h16c0.553,0,1,0.447,1,1v12C21-5.447,20.553-5,20-5L20-5z M14-17v10h5v-10H14L14-17z"/>
		</g>
	</g>
	<g>
		<g opacity="0.1">
			<path d="M19-16.5h-5V-17h5V-16.5z M21-6v0.5c0,0.553-0.447,1-1,1H4c-0.553,0-1-0.447-1-1V-6c0,0.553,0.447,1,1,1h16
				C20.553-5,21-5.447,21-6z"/>
		</g>
	</g>
	<polygon fill="none" points="24,-24 0,-24 0,0 24,0 	"/>
</symbol>
<symbol  id="ic_x5F_drawer_x5F_lightreg" viewBox="0 -24 24 24">
	<g>
		<g opacity="0.5">
			
				<linearGradient id="SVGID_20_" gradientUnits="userSpaceOnUse" x1="12" y1="-304.8906" x2="12" y2="-319.343" gradientTransform="matrix(1 0 0 1 0 300)">
				<stop  offset="0" style="stop-color:#FFFFFF;stop-opacity:0.9"/>
				<stop  offset="1" style="stop-color:#FFFFFF;stop-opacity:0.85"/>
			</linearGradient>
			<path fill="url(#SVGID_20_)" d="M20-5H4C3.447-5,3-5.447,3-6v-12c0-0.553,0.447-1,1-1h16c0.553,0,1,0.447,1,1v12
				C21-5.447,20.553-5,20-5z M19-17h-5v10h5V-17z"/>
		</g>
		<g opacity="0.05">
			<path fill="#FFFFFF" d="M20-5.5c0.276,0,0.5-0.225,0.5-0.5v-12c0-0.275-0.224-0.5-0.5-0.5H4c-0.276,0-0.5,0.225-0.5,0.5v12
				c0,0.275,0.224,0.5,0.5,0.5H20 M13.5-17.5H14h5h0.5v0.5v10v0.5H19h-5h-0.5V-7v-10V-17.5 M20-5H4C3.447-5,3-5.447,3-6v-12
				c0-0.553,0.447-1,1-1h16c0.553,0,1,0.447,1,1v12C21-5.447,20.553-5,20-5L20-5z M14-17v10h5v-10H14L14-17z"/>
		</g>
	</g>
	<g>
		<g opacity="0.2">
			<path d="M19-16.5h-5V-17h5V-16.5z M21-6v0.5c0,0.553-0.447,1-1,1H4c-0.553,0-1-0.447-1-1V-6c0,0.553,0.447,1,1,1h16
				C20.553-5,21-5.447,21-6z"/>
		</g>
	</g>
	<polygon fill="none" points="24,-24 0,-24 0,0 24,0 	"/>
</symbol>
<symbol  id="ic_x5F_menu_x5F_darkalt" viewBox="0 -24 24 24">
	<g>
		<g opacity="0.25">
			
				<linearGradient id="SVGID_21_" gradientUnits="userSpaceOnUse" x1="12" y1="-319" x2="12" y2="-306" gradientTransform="matrix(1 0 0 1 0 300)">
				<stop  offset="0" style="stop-color:#000000;stop-opacity:0.7"/>
				<stop  offset="1" style="stop-color:#000000;stop-opacity:0.6"/>
			</linearGradient>
			<path fill="url(#SVGID_21_)" d="M2-19h20v3H2V-19z M2-14h20v3H2V-14z M2-6v-3h20v3H2z"/>
		</g>
		<g opacity="0.03">
			<path d="M21.5-6.5v-2h-19v2H21.5 M21.5-11.5v-2h-19v2H21.5 M21.5-16.5v-2h-19v2H21.5 M22-6H2v-3h20V-6L22-6z M22-11H2v-3h20V-11
				L22-11z M22-16H2v-3h20V-16L22-16z"/>
		</g>
	</g>
	<g>
		<g opacity="0.08">
			<path d="M2-16.5h20v0.5H2V-16.5z M2-6v-0.5h20V-6H2z M2-11.5h20v0.5H2V-11.5z"/>
		</g>
	</g>
	<polygon fill="none" points="24,-24 0,-24 0,0 24,0 	"/>
	<path fill="#FFFFFF" fill-opacity="0.2" d="M2-14.5h20v0.5H2V-14.5z M2-19.5h20v0.5H2V-19.5z M2-9v-0.5h20V-9H2z"/>
</symbol>
<symbol  id="ic_x5F_menu_x5F_darkreg" viewBox="0 -24 24 24">
	<path fill="#FFFFFF" fill-opacity="0.3" d="M2-19.5h20v0.5H2V-19.5z M2-14.5h20v0.5H2V-14.5z M2-9v-0.5h20V-9H2z"/>
	<g>
		<g opacity="0.5">
			
				<linearGradient id="SVGID_22_" gradientUnits="userSpaceOnUse" x1="12" y1="-306" x2="12" y2="-319" gradientTransform="matrix(1 0 0 1 0 300)">
				<stop  offset="0" style="stop-color:#000000;stop-opacity:0.67"/>
				<stop  offset="1" style="stop-color:#000000;stop-opacity:0.75"/>
			</linearGradient>
			<path fill="url(#SVGID_22_)" d="M2-19h20v3H2V-19z M2-14h20v3H2V-14z M2-6v-3h20v3H2z"/>
		</g>
		<g opacity="0.05">
			<path d="M21.5-6.5v-2h-19v2H21.5 M21.5-11.5v-2h-19v2H21.5 M21.5-16.5v-2h-19v2H21.5 M22-6H2v-3h20V-6L22-6z M22-11H2v-3h20V-11
				L22-11z M22-16H2v-3h20V-16L22-16z"/>
		</g>
	</g>
	<polygon fill="none" points="24,-24 0,-24 0,0 24,0 	"/>
	<g>
		<g opacity="0.2">
			<path d="M2-16.5h20v0.5H2V-16.5z M2-6v-0.5h20V-6H2z M2-11.5h20v0.5H2V-11.5z"/>
		</g>
	</g>
</symbol>
<symbol  id="ic_x5F_menu_x5F_flat" viewBox="0 -24 24 24">
	<path fill="#231F20" d="M2-19h20v3H2V-19z M2-14h20v3H2V-14z M2-6v-3h20v3H2z"/>
	<polygon fill="none" points="24,-24 0,-24 0,0 24,0 	"/>
</symbol>
<symbol  id="ic_x5F_menu_x5F_lightalt" viewBox="0 -24 24 24">
	<g>
		<g opacity="0.25">
			
				<linearGradient id="SVGID_23_" gradientUnits="userSpaceOnUse" x1="12" y1="-305.8984" x2="12" y2="-319.3185" gradientTransform="matrix(1 0 0 1 0 300)">
				<stop  offset="0" style="stop-color:#FFFFFF;stop-opacity:0.9"/>
				<stop  offset="1" style="stop-color:#FFFFFF;stop-opacity:0.85"/>
			</linearGradient>
			<path fill="url(#SVGID_23_)" d="M2-19h20v3H2V-19z M2-14h20v3H2V-14z M2-6v-3h20v3H2z"/>
		</g>
		<g opacity="0.05">
			<path fill="#FFFFFF" d="M21.5-6.5v-2h-19v2H21.5 M21.5-11.5v-2h-19v2H21.5 M21.5-16.5v-2h-19v2H21.5 M22-6H2v-3h20V-6L22-6z
				 M22-11H2v-3h20V-11L22-11z M22-16H2v-3h20V-16L22-16z"/>
		</g>
	</g>
	<g>
		<g opacity="0.1">
			<path d="M2-11h20v0.5H2V-11z M2-16h20v0.5H2V-16z M2-5.5V-6h20v0.5H2z"/>
		</g>
	</g>
	<polygon fill="none" points="24,-24 0,-24 0,0 24,0 	"/>
</symbol>
<symbol  id="ic_x5F_menu_x5F_lightreg" viewBox="0 -24 24 24">
	<g>
		<g opacity="0.5">
			
				<linearGradient id="SVGID_24_" gradientUnits="userSpaceOnUse" x1="12" y1="-305.8984" x2="12" y2="-319.3185" gradientTransform="matrix(1 0 0 1 0 300)">
				<stop  offset="0" style="stop-color:#FFFFFF;stop-opacity:0.9"/>
				<stop  offset="1" style="stop-color:#FFFFFF;stop-opacity:0.85"/>
			</linearGradient>
			<path fill="url(#SVGID_24_)" d="M2-19h20v3H2V-19z M2-14h20v3H2V-14z M2-6v-3h20v3H2z"/>
		</g>
		<g opacity="0.05">
			<path fill="#FFFFFF" d="M21.5-6.5v-2h-19v2H21.5 M21.5-11.5v-2h-19v2H21.5 M21.5-16.5v-2h-19v2H21.5 M22-6H2v-3h20V-6L22-6z
				 M22-11H2v-3h20V-11L22-11z M22-16H2v-3h20V-16L22-16z"/>
		</g>
	</g>
	<g>
		<g opacity="0.2">
			<path d="M2-11h20v0.5H2V-11z M2-16h20v0.5H2V-16z M2-5.5V-6h20v0.5H2z"/>
		</g>
	</g>
	<polygon fill="none" points="24,-24 0,-24 0,0 24,0 	"/>
</symbol>
<symbol  id="ic_x5F_message_x5F_darkalt" viewBox="0 -24 24 24">
	<g>
		<g opacity="0.25">
			<linearGradient id="SVGID_25_" gradientUnits="userSpaceOnUse" x1="12" y1="-22" x2="12" y2="-2">
				<stop  offset="0" style="stop-color:#000000;stop-opacity:0.7"/>
				<stop  offset="1" style="stop-color:#000000;stop-opacity:0.6"/>
			</linearGradient>
			<path fill="url(#SVGID_25_)" d="M20-2H4C2.896-2,2-2.896,2-4v-18l5,4h13c1.104,0,2,0.896,2,2v12C22-2.896,21.104-2,20-2z M18-14
				H6v2h12V-14z M18-11H6v2h12V-11z M18-8H6v2h12V-8z"/>
		</g>
		<g opacity="0.03">
			<path d="M20-2.5c0.827,0,1.5-0.673,1.5-1.5v-12c0-0.827-0.673-1.5-1.5-1.5H7H6.825l-0.137-0.109L2.5-20.96V-4
				c0,0.827,0.673,1.5,1.5,1.5H20 M5.5-8.5V-9v-2v-0.5V-12v-2v-0.5H6h12h0.5v0.5v2v0.5v0.5v2v0.5V-8v2v0.5H18H6H5.5V-6v-2V-8.5
				 M20-2H4C2.896-2,2-2.896,2-4v-18l5,4h13c1.104,0,2,0.896,2,2v12C22-2.896,21.104-2,20-2L20-2z M6-8v2h12v-2H6L6-8z M6-11v2h12
				v-2H6L6-11z M6-14v2h12v-2H6L6-14z"/>
		</g>
	</g>
	<polygon fill="none" points="24,-24 0,-24 0,0 24,0 	"/>
	<g>
		<g opacity="0.08">
			<path d="M6-14.5h12v0.5H6V-14.5z M6-11.5h12v0.5H6V-11.5z M20-2H4C2.896-2,2-2.896,2-4v-0.5c0,1.104,0.896,2,2,2h16
				c1.104,0,2-0.896,2-2V-4C22-2.896,21.104-2,20-2z M6-8.5h12V-8H6V-8.5z"/>
		</g>
	</g>
	<path fill="#FFFFFF" fill-opacity="0.2" d="M18-9H6v-0.5h12V-9z M18-6H6v-0.5h12V-6z M18-12H6v-0.5h12V-12z M20-18H7l-5-4v-0.5l5,4
		h13c1.104,0,2,0.896,2,2v0.5C22-17.104,21.104-18,20-18z"/>
</symbol>
<symbol  id="ic_x5F_message_x5F_darkreg" viewBox="0 -24 24 24">
	<g>
		<g>
			<linearGradient id="SVGID_26_" gradientUnits="userSpaceOnUse" x1="12" y1="-22" x2="12" y2="-2">
				<stop  offset="0" style="stop-color:#000000;stop-opacity:0.7"/>
				<stop  offset="1" style="stop-color:#000000;stop-opacity:0.6"/>
			</linearGradient>
			<path fill="url(#SVGID_26_)" d="M20-2H4C2.896-2,2-2.896,2-4v-18l5,4h13c1.104,0,2,0.896,2,2v12C22-2.896,21.104-2,20-2z M18-14
				H6v2h12V-14z M18-11H6v2h12V-11z M18-8H6v2h12V-8z"/>
		</g>
		<g opacity="0.05">
			<path d="M20-2.5c0.827,0,1.5-0.673,1.5-1.5v-12c0-0.827-0.673-1.5-1.5-1.5H7H6.825l-0.137-0.109L2.5-20.96V-4
				c0,0.827,0.673,1.5,1.5,1.5H20 M5.5-8.5V-9v-2v-0.5V-12v-2v-0.5H6h12h0.5v0.5v2v0.5v0.5v2v0.5V-8v2v0.5H18H6H5.5V-6v-2V-8.5
				 M20-2H4C2.896-2,2-2.896,2-4v-18l5,4h13c1.104,0,2,0.896,2,2v12C22-2.896,21.104-2,20-2L20-2z M6-8v2h12v-2H6L6-8z M6-11v2h12
				v-2H6L6-11z M6-14v2h12v-2H6L6-14z"/>
		</g>
	</g>
	<polygon fill="none" points="24,-24 0,-24 0,0 24,0 	"/>
	<g>
		<g opacity="0.3">
			<path d="M6-14.5h12v0.5H6V-14.5z M6-11.5h12v0.5H6V-11.5z M20-2H4C2.896-2,2-2.896,2-4v-0.5c0,1.104,0.896,2,2,2h16
				c1.104,0,2-0.896,2-2V-4C22-2.896,21.104-2,20-2z M6-8.5h12V-8H6V-8.5z"/>
		</g>
	</g>
	<path fill="#FFFFFF" fill-opacity="0.3" d="M18-9H6v-0.5h12V-9z M18-6H6v-0.5h12V-6z M18-12H6v-0.5h12V-12z M20-18H7l-5-4v-0.5l5,4
		h13c1.104,0,2,0.896,2,2v0.5C22-17.104,21.104-18,20-18z"/>
</symbol>
<symbol  id="ic_x5F_message_x5F_flat" viewBox="0 -24 24 24">
	<path fill="#231F20" d="M20-2H4C2.896-2,2-2.896,2-4v-18l5,4h13c1.104,0,2,0.896,2,2v12C22-2.896,21.104-2,20-2z M18-14H6v2h12V-14
		z M18-11H6v2h12V-11z M18-8H6v2h12V-8z"/>
	<polygon fill="none" points="24,-24 0,-24 0,0 24,0 	"/>
</symbol>
<symbol  id="ic_x5F_message_x5F_lightalt" viewBox="0 -24 24 24">
	<g>
		<g opacity="0.25">
			<linearGradient id="SVGID_27_" gradientUnits="userSpaceOnUse" x1="12" y1="-1.8438" x2="12" y2="-22.49">
				<stop  offset="0" style="stop-color:#FFFFFF;stop-opacity:0.9"/>
				<stop  offset="1" style="stop-color:#FFFFFF;stop-opacity:0.85"/>
			</linearGradient>
			<path fill="url(#SVGID_27_)" d="M20-2H4C2.896-2,2-2.896,2-4v-18l5,4h13c1.104,0,2,0.896,2,2v12C22-2.896,21.104-2,20-2z M18-14
				H6v2h12V-14z M18-11H6v2h12V-11z M18-8H6v2h12V-8z"/>
		</g>
		<g opacity="0.05">
			<path fill="#FFFFFF" d="M20-2.5c0.827,0,1.5-0.673,1.5-1.5v-12c0-0.827-0.673-1.5-1.5-1.5H7H6.825l-0.137-0.109L2.5-20.96V-4
				c0,0.827,0.673,1.5,1.5,1.5H20 M5.5-8.5V-9v-2v-0.5V-12v-2v-0.5H6h12h0.5v0.5v2v0.5v0.5v2v0.5V-8v2v0.5H18H6H5.5V-6v-2V-8.5
				 M20-2H4C2.896-2,2-2.896,2-4v-18l5,4h13c1.104,0,2,0.896,2,2v12C22-2.896,21.104-2,20-2L20-2z M6-8v2h12v-2H6L6-8z M6-11v2h12
				v-2H6L6-11z M6-14v2h12v-2H6L6-14z"/>
		</g>
	</g>
	<polygon fill="none" points="24,-24 0,-24 0,0 24,0 	"/>
	<g>
		<g opacity="0.1">
			<path d="M6-14h12v0.5H6V-14z M6-11h12v0.5H6V-11z M20-1.5H4c-1.104,0-2-0.896-2-2V-4c0,1.104,0.896,2,2,2h16c1.104,0,2-0.896,2-2
				v0.5C22-2.396,21.104-1.5,20-1.5z M6-8h12v0.5H6V-8z"/>
		</g>
	</g>
</symbol>
<symbol  id="ic_x5F_message_x5F_lightreg" viewBox="0 -24 24 24">
	<g>
		<linearGradient id="SVGID_28_" gradientUnits="userSpaceOnUse" x1="12" y1="-1.8438" x2="12" y2="-22.49">
			<stop  offset="0" style="stop-color:#FFFFFF;stop-opacity:0.9"/>
			<stop  offset="1" style="stop-color:#FFFFFF;stop-opacity:0.85"/>
		</linearGradient>
		<path fill="url(#SVGID_28_)" d="M20-2H4C2.896-2,2-2.896,2-4v-18l5,4h13c1.104,0,2,0.896,2,2v12C22-2.896,21.104-2,20-2z M18-14H6
			v2h12V-14z M18-11H6v2h12V-11z M18-8H6v2h12V-8z"/>
		<g opacity="0.05">
			<path fill="#FFFFFF" d="M20-2.5c0.827,0,1.5-0.673,1.5-1.5v-12c0-0.827-0.673-1.5-1.5-1.5H7H6.825l-0.137-0.109L2.5-20.96V-4
				c0,0.827,0.673,1.5,1.5,1.5H20 M5.5-8.5V-9v-2v-0.5V-12v-2v-0.5H6h12h0.5v0.5v2v0.5v0.5v2v0.5V-8v2v0.5H18H6H5.5V-6v-2V-8.5
				 M20-2H4C2.896-2,2-2.896,2-4v-18l5,4h13c1.104,0,2,0.896,2,2v12C22-2.896,21.104-2,20-2L20-2z M6-8v2h12v-2H6L6-8z M6-11v2h12
				v-2H6L6-11z M6-14v2h12v-2H6L6-14z"/>
		</g>
	</g>
	<polygon fill="none" points="24,-24 0,-24 0,0 24,0 	"/>
	<g>
		<g opacity="0.2">
			<path d="M6-14h12v0.5H6V-14z M6-11h12v0.5H6V-11z M20-1.5H4c-1.104,0-2-0.896-2-2V-4c0,1.104,0.896,2,2,2h16c1.104,0,2-0.896,2-2
				v0.5C22-2.396,21.104-1.5,20-1.5z M6-8h12v0.5H6V-8z"/>
		</g>
	</g>
</symbol>
<symbol  id="ic_x5F_refresh_x5F_darkalt" viewBox="0 -24 24 24">
	<g>
		<linearGradient id="SVGID_29_" gradientUnits="userSpaceOnUse" x1="12" y1="-20" x2="12" y2="-4">
			<stop  offset="0" style="stop-color:#000000;stop-opacity:0.7"/>
			<stop  offset="1" style="stop-color:#000000;stop-opacity:0.6"/>
		</linearGradient>
		<path opacity="0.25" fill="url(#SVGID_29_)" d="M17.649-6.351C16.203-4.901,14.21-4,12-4c-4.418,0-8-3.582-8-8s3.582-8,8-8
			c3.726,0,6.843,2.552,7.732,6h-2.084c-0.823-2.33-3.037-4-5.648-4c-3.314,0-6,2.686-6,6s2.686,6,6,6
			c1.657,0,3.141-0.688,4.225-1.775L13-11h7v7L17.649-6.351z"/>
		<g opacity="0.03">
			<path d="M12-4.5c1.997,0,3.877-0.782,5.295-2.204l0.354-0.354l0.354,0.354L19.5-5.207V-10.5h-5.293l2.371,2.371l0.353,0.353
				l-0.353,0.354C15.344-6.183,13.717-5.5,12-5.5c-3.584,0-6.5-2.916-6.5-6.5s2.916-6.5,6.5-6.5c2.625,0,4.99,1.593,5.992,4h1.066
				c-1.048-2.975-3.864-5-7.058-5c-4.136,0-7.5,3.364-7.5,7.5S7.864-4.5,12-4.5 M20-4l-2.351-2.351C16.203-4.901,14.21-4,12-4
				c-4.418,0-8-3.582-8-8s3.582-8,8-8c3.726,0,6.843,2.552,7.732,6h-2.084c-0.823-2.33-3.037-4-5.648-4c-3.314,0-6,2.686-6,6
				s2.686,6,6,6c1.657,0,3.141-0.688,4.225-1.775L13-11h7V-4L20-4z"/>
		</g>
	</g>
	<path fill="#FFFFFF" fill-opacity="0.2" d="M12-20c-4.333,0-7.854,3.449-7.987,7.75C4.01-12.334,4-12.416,4-12.5
		c0-4.418,3.582-8,8-8c3.726,0,6.843,2.552,7.732,6v0.5l-0.151-0.5C18.53-17.691,15.542-20,12-20z M12-6.5
		c1.53,0,2.907-0.591,3.963-1.537l0.261,0.262C15.141-6.688,13.657-6,12-6c-3.314,0-6-2.686-6-6c0-0.084,0.009-0.166,0.013-0.25
		C6.145-9.053,8.77-6.5,12-6.5z M13-11v-0.5h7v0.5H13z"/>
	<polygon fill="none" points="24,-24 0,-24 0,0 24,0 	"/>
	<g>
		<g opacity="0.08">
			<path d="M12-18c-3.23,0-5.855,2.553-5.987,5.75C6.009-12.334,6-12.416,6-12.5c0-3.314,2.686-6,6-6c2.611,0,4.825,1.67,5.648,4
				h1.933c0.054,0.165,0.107,0.33,0.151,0.5h-2.084C16.825-16.33,14.611-18,12-18z M17.649-6.351C16.203-4.901,14.21-4,12-4
				c-4.418,0-8-3.582-8-8c0-0.084,0.01-0.166,0.013-0.25C4.146-7.949,7.667-4.5,12-4.5c2.21,0,4.203-0.901,5.649-2.351L20-4.5V-4
				L17.649-6.351z M16.225-7.775L13-11h0.5l2.725,2.725V-7.775z"/>
		</g>
	</g>
</symbol>
<symbol  id="ic_x5F_refresh_x5F_darkreg" viewBox="0 -24 24 24">
	<g>
		<linearGradient id="SVGID_30_" gradientUnits="userSpaceOnUse" x1="12" y1="-20" x2="12" y2="-4">
			<stop  offset="0" style="stop-color:#000000;stop-opacity:0.7"/>
			<stop  offset="1" style="stop-color:#000000;stop-opacity:0.6"/>
		</linearGradient>
		<path fill="url(#SVGID_30_)" d="M17.649-6.351C16.203-4.901,14.21-4,12-4c-4.418,0-8-3.582-8-8s3.582-8,8-8
			c3.726,0,6.843,2.552,7.732,6h-2.084c-0.823-2.33-3.037-4-5.648-4c-3.314,0-6,2.686-6,6s2.686,6,6,6
			c1.657,0,3.141-0.688,4.225-1.775L13-11h7v7L17.649-6.351z"/>
		<g opacity="0.05">
			<path d="M12-4.5c1.997,0,3.877-0.782,5.295-2.204l0.354-0.354l0.354,0.354L19.5-5.207V-10.5h-5.293l2.371,2.371l0.353,0.353
				l-0.353,0.354C15.344-6.183,13.717-5.5,12-5.5c-3.584,0-6.5-2.916-6.5-6.5s2.916-6.5,6.5-6.5c2.625,0,4.99,1.593,5.992,4h1.066
				c-1.048-2.975-3.864-5-7.058-5c-4.136,0-7.5,3.364-7.5,7.5S7.864-4.5,12-4.5 M20-4l-2.351-2.351C16.203-4.901,14.21-4,12-4
				c-4.418,0-8-3.582-8-8s3.582-8,8-8c3.726,0,6.843,2.552,7.732,6h-2.084c-0.823-2.33-3.037-4-5.648-4c-3.314,0-6,2.686-6,6
				s2.686,6,6,6c1.657,0,3.141-0.688,4.225-1.775L13-11h7V-4L20-4z"/>
		</g>
	</g>
	<path fill="#FFFFFF" fill-opacity="0.3" d="M12-20c-4.333,0-7.854,3.449-7.987,7.75C4.01-12.334,4-12.416,4-12.5
		c0-4.418,3.582-8,8-8c3.726,0,6.843,2.552,7.732,6v0.5l-0.151-0.5C18.53-17.691,15.542-20,12-20z M12-6.5
		c1.53,0,2.907-0.591,3.963-1.537l0.261,0.262C15.141-6.688,13.657-6,12-6c-3.314,0-6-2.686-6-6c0-0.084,0.009-0.166,0.013-0.25
		C6.145-9.053,8.77-6.5,12-6.5z M13-11v-0.5h7v0.5H13z"/>
	<polygon fill="none" points="24,-24 0,-24 0,0 24,0 	"/>
	<g>
		<g opacity="0.3">
			<path d="M12-18c-3.23,0-5.855,2.553-5.987,5.75C6.009-12.334,6-12.416,6-12.5c0-3.314,2.686-6,6-6c2.611,0,4.825,1.67,5.648,4
				h1.933c0.054,0.165,0.107,0.33,0.151,0.5h-2.084C16.825-16.33,14.611-18,12-18z M17.649-6.351C16.203-4.901,14.21-4,12-4
				c-4.418,0-8-3.582-8-8c0-0.084,0.01-0.166,0.013-0.25C4.146-7.949,7.667-4.5,12-4.5c2.21,0,4.203-0.901,5.649-2.351L20-4.5V-4
				L17.649-6.351z M16.225-7.775L13-11h0.5l2.725,2.725V-7.775z"/>
		</g>
	</g>
</symbol>
<symbol  id="ic_x5F_refresh_x5F_flat" viewBox="0 -24 24 24">
	<path fill="#231F20" d="M17.649-6.351C16.203-4.901,14.21-4,12-4c-4.418,0-8-3.582-8-8s3.582-8,8-8c3.726,0,6.843,2.552,7.732,6
		h-2.084c-0.823-2.33-3.037-4-5.648-4c-3.314,0-6,2.686-6,6s2.686,6,6,6c1.657,0,3.141-0.688,4.225-1.775L13-11h7v7L17.649-6.351z"
		/>
	<polygon fill="none" points="24,-24 0,-24 0,0 24,0 	"/>
</symbol>
<symbol  id="ic_x5F_refresh_x5F_lightalt" viewBox="0 -24 24 24">
	<g>
		<linearGradient id="SVGID_31_" gradientUnits="userSpaceOnUse" x1="12" y1="-3.875" x2="12" y2="-20.392">
			<stop  offset="0" style="stop-color:#FFFFFF;stop-opacity:0.9"/>
			<stop  offset="1" style="stop-color:#FFFFFF;stop-opacity:0.85"/>
		</linearGradient>
		<path opacity="0.25" fill="url(#SVGID_31_)" d="M17.649-6.351C16.203-4.901,14.21-4,12-4c-4.418,0-8-3.582-8-8s3.582-8,8-8
			c3.726,0,6.843,2.552,7.732,6h-2.084c-0.823-2.33-3.037-4-5.648-4c-3.314,0-6,2.686-6,6s2.686,6,6,6
			c1.657,0,3.141-0.688,4.225-1.775L13-11h7v7L17.649-6.351z"/>
		<g opacity="0.05">
			<path fill="#FFFFFF" d="M12-4.5c1.997,0,3.877-0.782,5.295-2.204l0.354-0.354l0.354,0.354L19.5-5.207V-10.5h-5.293l2.371,2.371
				l0.353,0.353l-0.353,0.354C15.344-6.183,13.717-5.5,12-5.5c-3.584,0-6.5-2.916-6.5-6.5s2.916-6.5,6.5-6.5
				c2.625,0,4.99,1.593,5.992,4h1.066c-1.048-2.975-3.864-5-7.058-5c-4.136,0-7.5,3.364-7.5,7.5S7.864-4.5,12-4.5 M20-4
				l-2.351-2.351C16.203-4.901,14.21-4,12-4c-4.418,0-8-3.582-8-8s3.582-8,8-8c3.726,0,6.843,2.552,7.732,6h-2.084
				c-0.823-2.33-3.037-4-5.648-4c-3.314,0-6,2.686-6,6s2.686,6,6,6c1.657,0,3.141-0.688,4.225-1.775L13-11h7V-4L20-4z"/>
		</g>
	</g>
	<g>
		<g opacity="0.1">
			<path d="M12-17.5c-3.23,0-5.855,2.553-5.987,5.75C6.009-11.834,6-11.916,6-12c0-3.314,2.686-6,6-6c2.611,0,4.825,1.67,5.648,4
				h2.084v0.5h-2.084C16.825-15.83,14.611-17.5,12-17.5z M17.649-5.851C16.203-4.401,14.21-3.5,12-3.5c-4.418,0-8-3.582-8-8
				c0-0.084,0.01-0.166,0.013-0.25C4.146-7.449,7.667-4,12-4c2.21,0,4.203-0.901,5.649-2.351L20-4v0.5L17.649-5.851z M15.963-7.537
				L13-10.5V-11l3.225,3.225C16.142-7.691,16.051-7.615,15.963-7.537z"/>
		</g>
	</g>
	<polygon fill="none" points="24,-24 0,-24 0,0 24,0 	"/>
</symbol>
<symbol  id="ic_x5F_refresh_x5F_lightreg" viewBox="0 -24 24 24">
	<g>
		<linearGradient id="SVGID_32_" gradientUnits="userSpaceOnUse" x1="12" y1="-3.875" x2="12" y2="-20.392">
			<stop  offset="0" style="stop-color:#FFFFFF;stop-opacity:0.9"/>
			<stop  offset="1" style="stop-color:#FFFFFF;stop-opacity:0.85"/>
		</linearGradient>
		<path fill="url(#SVGID_32_)" d="M17.649-6.351C16.203-4.901,14.21-4,12-4c-4.418,0-8-3.582-8-8s3.582-8,8-8
			c3.726,0,6.843,2.552,7.732,6h-2.084c-0.823-2.33-3.037-4-5.648-4c-3.314,0-6,2.686-6,6s2.686,6,6,6
			c1.657,0,3.141-0.688,4.225-1.775L13-11h7v7L17.649-6.351z"/>
		<g opacity="0.05">
			<path fill="#FFFFFF" d="M12-4.5c1.997,0,3.877-0.782,5.295-2.204l0.354-0.354l0.354,0.354L19.5-5.207V-10.5h-5.293l2.371,2.371
				l0.353,0.353l-0.353,0.354C15.344-6.183,13.717-5.5,12-5.5c-3.584,0-6.5-2.916-6.5-6.5s2.916-6.5,6.5-6.5
				c2.625,0,4.99,1.593,5.992,4h1.066c-1.048-2.975-3.864-5-7.058-5c-4.136,0-7.5,3.364-7.5,7.5S7.864-4.5,12-4.5 M20-4
				l-2.351-2.351C16.203-4.901,14.21-4,12-4c-4.418,0-8-3.582-8-8s3.582-8,8-8c3.726,0,6.843,2.552,7.732,6h-2.084
				c-0.823-2.33-3.037-4-5.648-4c-3.314,0-6,2.686-6,6s2.686,6,6,6c1.657,0,3.141-0.688,4.225-1.775L13-11h7V-4L20-4z"/>
		</g>
	</g>
	<polygon fill="none" points="24,-24 0,-24 0,0 24,0 	"/>
	<g>
		<g opacity="0.2">
			<path d="M12-17.5c-3.23,0-5.855,2.553-5.987,5.75C6.009-11.834,6-11.916,6-12c0-3.314,2.686-6,6-6c2.611,0,4.825,1.67,5.648,4
				h2.084v0.5h-2.084C16.825-15.83,14.611-17.5,12-17.5z M17.649-5.851C16.203-4.401,14.21-3.5,12-3.5c-4.418,0-8-3.582-8-8
				c0-0.084,0.01-0.166,0.013-0.25C4.146-7.449,7.667-4,12-4c2.21,0,4.203-0.901,5.649-2.351L20-4v0.5L17.649-5.851z M15.963-7.537
				L13-10.5V-11l3.225,3.225C16.142-7.691,16.051-7.615,15.963-7.537z"/>
		</g>
	</g>
</symbol>
<symbol  id="ic_x5F_searchinput_x5F_lg_x5F_darkalt" viewBox="0 -24 24 24">
	<polygon fill="none" points="24,-24 0,-24 0,0 24,0 	"/>
	<g>
		<g opacity="0.25">
			<linearGradient id="SVGID_33_" gradientUnits="userSpaceOnUse" x1="12.0005" y1="-20" x2="12.0005" y2="-4.0002">
				<stop  offset="0" style="stop-color:#000000;stop-opacity:0.7"/>
				<stop  offset="1" style="stop-color:#000000;stop-opacity:0.6"/>
			</linearGradient>
			<path fill="url(#SVGID_33_)" d="M19.692-18.201L15.502-14h-0.794l-0.128,0.127c0.886,1.046,1.422,2.396,1.422,3.873
				c0,3.313-2.687,6-6.001,6s-6-2.687-6-6s2.686-6,6-6c1.478,0,2.827,0.535,3.872,1.42l0.128-0.128V-15.5l4.2-4.19
				c0.412-0.411,1.08-0.413,1.491-0.002C20.102-19.278,20.103-18.613,19.692-18.201z M10.001-14.2c-2.319,0-4.2,1.881-4.2,4.2
				s1.881,4.2,4.2,4.2c2.318,0,4.199-1.881,4.199-4.2S12.319-14.2,10.001-14.2z"/>
		</g>
		<g opacity="0.03">
			<path d="M10.001-4.5c3.033,0,5.501-2.468,5.501-5.5c0-1.297-0.463-2.558-1.303-3.55l-0.298-0.352l-0.351-0.297
				c-0.991-0.84-2.251-1.302-3.549-1.302c-3.033,0-5.5,2.468-5.5,5.5S6.968-4.5,10.001-4.5 M10.001-14.7
				c2.591,0,4.699,2.108,4.699,4.7s-2.108,4.7-4.699,4.7c-2.592,0-4.7-2.108-4.7-4.7S7.409-14.7,10.001-14.7 M14.246-14.246
				l0.11-0.108l0.146-0.146h0.206h0.586l4.043-4.054c0.215-0.216,0.214-0.569,0.001-0.785c-0.104-0.104-0.242-0.161-0.39-0.161
				c-0.149,0-0.29,0.059-0.395,0.163l-4.053,4.044v0.585v0.207l-0.146,0.146L14.246-14.246 M10.001-4c-3.314,0-6-2.687-6-6
				s2.686-6,6-6c1.478,0,2.827,0.535,3.872,1.42l0.128-0.128V-15.5l4.2-4.19c0.207-0.206,0.478-0.31,0.748-0.31
				c0.269,0,0.538,0.103,0.743,0.308c0.409,0.414,0.41,1.079,0,1.491L15.502-14h-0.794l-0.128,0.127
				c0.886,1.046,1.422,2.396,1.422,3.873C16.002-6.687,13.315-4,10.001-4L10.001-4z M10.001-14.2c-2.319,0-4.2,1.881-4.2,4.2
				s1.881,4.2,4.2,4.2c2.318,0,4.199-1.881,4.199-4.2S12.319-14.2,10.001-14.2L10.001-14.2z"/>
		</g>
	</g>
	<path fill="#FFFFFF" fill-opacity="0.2" d="M10-6.3c2.233,0,4.042-1.75,4.174-3.95c0.005,0.085,0.025,0.164,0.025,0.25
		c0,2.319-1.881,4.2-4.199,4.2c-2.319,0-4.2-1.881-4.2-4.2c0-0.086,0.02-0.165,0.025-0.25C5.957-8.05,7.767-6.3,10-6.3z M14.844-14
		c0.716,0.988,1.157,2.188,1.157,3.5c0,0.108-0.011,0.214-0.016,0.32c-0.042-1.405-0.557-2.69-1.406-3.693L14.707-14H14.844z
		 M14-14.708l-0.128,0.128C12.827-15.465,11.478-16,10-16c-3.23,0-5.855,2.553-5.987,5.75C4.009-10.334,4-10.415,4-10.5
		c0-3.313,2.686-6,6-6c1.478,0,2.827,0.535,3.872,1.42L14-15.208V-14.708z M19.95-19.195c-0.044-0.181-0.119-0.355-0.259-0.497
		c-0.411-0.411-1.079-0.409-1.491,0.002L14-15.5V-16l4.2-4.19c0.412-0.411,1.08-0.413,1.491-0.002
		C19.961-19.92,20.035-19.542,19.95-19.195z"/>
	<g>
		<g opacity="0.08">
			<path fill="#231F20" d="M10-4.5c3.206,0,5.817-2.516,5.985-5.68c0.001,0.061,0.016,0.118,0.016,0.18c0,3.313-2.687,6-6.001,6
				s-6-2.687-6-6c0-0.085,0.009-0.166,0.013-0.25C4.145-7.053,6.77-4.5,10-4.5z M19.691-18.201L15.501-14h-0.657
				c-0.09-0.123-0.167-0.257-0.265-0.373l0.128-0.127h0.794l4.19-4.201c0.14-0.141,0.215-0.314,0.259-0.494
				C20.035-18.85,19.961-18.473,19.691-18.201z M10-14.2c-2.233,0-4.043,1.749-4.175,3.95C5.82-10.335,5.8-10.414,5.8-10.5
				c0-2.319,1.881-4.2,4.2-4.2c2.318,0,4.199,1.881,4.199,4.2c0,0.086-0.02,0.165-0.025,0.25C14.042-12.451,12.233-14.2,10-14.2z"/>
		</g>
	</g>
</symbol>
<symbol  id="ic_x5F_searchinput_x5F_lg_x5F_darkreg" viewBox="0 -24 24 24">
	<polygon fill="none" points="24,-24 0,-24 0,0 24,0 	"/>
	<g>
		<g opacity="0.5">
			<linearGradient id="SVGID_34_" gradientUnits="userSpaceOnUse" x1="12.0005" y1="-20" x2="12.0005" y2="-4.0002">
				<stop  offset="0" style="stop-color:#000000;stop-opacity:0.7"/>
				<stop  offset="1" style="stop-color:#000000;stop-opacity:0.6"/>
			</linearGradient>
			<path fill="url(#SVGID_34_)" d="M19.692-18.201L15.502-14h-0.794l-0.128,0.127c0.886,1.046,1.422,2.396,1.422,3.873
				c0,3.313-2.687,6-6.001,6s-6-2.687-6-6s2.686-6,6-6c1.478,0,2.827,0.535,3.872,1.42l0.128-0.128V-15.5l4.2-4.19
				c0.412-0.411,1.08-0.413,1.491-0.002C20.102-19.278,20.103-18.613,19.692-18.201z M10.001-14.2c-2.319,0-4.2,1.881-4.2,4.2
				s1.881,4.2,4.2,4.2c2.318,0,4.199-1.881,4.199-4.2S12.319-14.2,10.001-14.2z"/>
		</g>
		<g opacity="0.05">
			<path d="M10.001-4.5c3.033,0,5.501-2.468,5.501-5.5c0-1.297-0.463-2.558-1.303-3.55l-0.298-0.352l-0.351-0.297
				c-0.991-0.84-2.251-1.302-3.549-1.302c-3.033,0-5.5,2.468-5.5,5.5S6.968-4.5,10.001-4.5 M10.001-14.7
				c2.591,0,4.699,2.108,4.699,4.7s-2.108,4.7-4.699,4.7c-2.592,0-4.7-2.108-4.7-4.7S7.409-14.7,10.001-14.7 M14.246-14.246
				l0.11-0.108l0.146-0.146h0.206h0.586l4.043-4.054c0.215-0.216,0.214-0.569,0.001-0.785c-0.104-0.104-0.242-0.161-0.39-0.161
				c-0.149,0-0.29,0.059-0.395,0.163l-4.053,4.044v0.585v0.207l-0.146,0.146L14.246-14.246 M10.001-4c-3.314,0-6-2.687-6-6
				s2.686-6,6-6c1.478,0,2.827,0.535,3.872,1.42l0.128-0.128V-15.5l4.2-4.19c0.207-0.206,0.478-0.31,0.748-0.31
				c0.269,0,0.538,0.103,0.743,0.308c0.409,0.414,0.41,1.079,0,1.491L15.502-14h-0.794l-0.128,0.127
				c0.886,1.046,1.422,2.396,1.422,3.873C16.002-6.687,13.315-4,10.001-4L10.001-4z M10.001-14.2c-2.319,0-4.2,1.881-4.2,4.2
				s1.881,4.2,4.2,4.2c2.318,0,4.199-1.881,4.199-4.2S12.319-14.2,10.001-14.2L10.001-14.2z"/>
		</g>
	</g>
	<path fill="#FFFFFF" fill-opacity="0.3" d="M10-6.3c2.233,0,4.042-1.75,4.174-3.95c0.005,0.085,0.025,0.164,0.025,0.25
		c0,2.319-1.881,4.2-4.199,4.2c-2.319,0-4.2-1.881-4.2-4.2c0-0.086,0.02-0.165,0.025-0.25C5.957-8.05,7.767-6.3,10-6.3z M14.844-14
		c0.716,0.988,1.157,2.188,1.157,3.5c0,0.108-0.011,0.214-0.016,0.32c-0.042-1.405-0.557-2.69-1.406-3.693L14.707-14H14.844z
		 M14-14.708l-0.128,0.128C12.827-15.465,11.478-16,10-16c-3.23,0-5.855,2.553-5.987,5.75C4.009-10.334,4-10.415,4-10.5
		c0-3.313,2.686-6,6-6c1.478,0,2.827,0.535,3.872,1.42L14-15.208V-14.708z M19.95-19.195c-0.044-0.181-0.119-0.355-0.259-0.497
		c-0.411-0.411-1.079-0.409-1.491,0.002L14-15.5V-16l4.2-4.19c0.412-0.411,1.08-0.413,1.491-0.002
		C19.961-19.92,20.035-19.542,19.95-19.195z"/>
	<g>
		<g opacity="0.2">
			<path fill="#231F20" d="M10-4.5c3.206,0,5.817-2.516,5.985-5.68c0.001,0.061,0.016,0.118,0.016,0.18c0,3.313-2.687,6-6.001,6
				s-6-2.687-6-6c0-0.085,0.009-0.166,0.013-0.25C4.145-7.053,6.77-4.5,10-4.5z M19.691-18.201L15.501-14h-0.657
				c-0.09-0.123-0.167-0.257-0.265-0.373l0.128-0.127h0.794l4.19-4.201c0.14-0.141,0.215-0.314,0.259-0.494
				C20.035-18.85,19.961-18.473,19.691-18.201z M10-14.2c-2.233,0-4.043,1.749-4.175,3.95C5.82-10.335,5.8-10.414,5.8-10.5
				c0-2.319,1.881-4.2,4.2-4.2c2.318,0,4.199,1.881,4.199,4.2c0,0.086-0.02,0.165-0.025,0.25C14.042-12.451,12.233-14.2,10-14.2z"/>
		</g>
	</g>
</symbol>
<symbol  id="ic_x5F_searchinput_x5F_lg_x5F_flat" viewBox="0 -24 24 24">
	<polygon fill="none" points="24,-24 0,-24 0,0 24,0 	"/>
	<path fill="#231F20" d="M19.692-18.201L15.502-14h-0.794l-0.128,0.127c0.886,1.046,1.422,2.396,1.422,3.873
		c0,3.313-2.687,6-6.001,6s-6-2.687-6-6s2.686-6,6-6c1.478,0,2.827,0.535,3.872,1.42l0.128-0.128V-15.5l4.2-4.19
		c0.412-0.411,1.08-0.413,1.491-0.002C20.102-19.278,20.103-18.613,19.692-18.201z M10.001-14.2c-2.319,0-4.2,1.881-4.2,4.2
		s1.881,4.2,4.2,4.2c2.318,0,4.199-1.881,4.199-4.2S12.319-14.2,10.001-14.2z"/>
</symbol>
<symbol  id="ic_x5F_searchinput_x5F_lg_x5F_lightalt" viewBox="0 -24 24 24">
	<g>
		<g opacity="0.25">
			<linearGradient id="SVGID_35_" gradientUnits="userSpaceOnUse" x1="12.0005" y1="-3.875" x2="12.0005" y2="-20.3917">
				<stop  offset="0" style="stop-color:#FFFFFF;stop-opacity:0.9"/>
				<stop  offset="1" style="stop-color:#FFFFFF;stop-opacity:0.85"/>
			</linearGradient>
			<path fill="url(#SVGID_35_)" d="M19.692-18.201L15.502-14h-0.794l-0.128,0.127c0.886,1.046,1.422,2.396,1.422,3.873
				c0,3.313-2.687,6-6.001,6s-6-2.687-6-6s2.686-6,6-6c1.478,0,2.827,0.535,3.872,1.42l0.128-0.128V-15.5l4.2-4.19
				c0.412-0.411,1.08-0.413,1.491-0.002C20.102-19.278,20.103-18.613,19.692-18.201z M10.001-14.2c-2.319,0-4.2,1.881-4.2,4.2
				s1.881,4.2,4.2,4.2c2.318,0,4.199-1.881,4.199-4.2S12.319-14.2,10.001-14.2z"/>
		</g>
		<g opacity="0.05">
			<path fill="#FFFFFF" d="M10.001-4.5c3.033,0,5.501-2.468,5.501-5.5c0-1.297-0.463-2.558-1.303-3.55l-0.298-0.352l-0.351-0.297
				c-0.991-0.84-2.251-1.302-3.549-1.302c-3.033,0-5.5,2.468-5.5,5.5S6.968-4.5,10.001-4.5 M10.001-14.7
				c2.591,0,4.699,2.108,4.699,4.7s-2.108,4.7-4.699,4.7c-2.592,0-4.7-2.108-4.7-4.7S7.409-14.7,10.001-14.7 M14.246-14.246
				l0.11-0.108l0.146-0.146h0.206h0.586l4.043-4.054c0.215-0.216,0.214-0.569,0.001-0.785c-0.104-0.104-0.242-0.161-0.39-0.161
				c-0.149,0-0.29,0.059-0.395,0.163l-4.053,4.044v0.585v0.207l-0.146,0.146L14.246-14.246 M10.001-4c-3.314,0-6-2.687-6-6
				s2.686-6,6-6c1.478,0,2.827,0.535,3.872,1.42l0.128-0.128V-15.5l4.2-4.19c0.207-0.206,0.478-0.31,0.748-0.31
				c0.269,0,0.538,0.103,0.743,0.308c0.409,0.414,0.41,1.079,0,1.491L15.502-14h-0.794l-0.128,0.127
				c0.886,1.046,1.422,2.396,1.422,3.873C16.002-6.687,13.315-4,10.001-4L10.001-4z M10.001-14.2c-2.319,0-4.2,1.881-4.2,4.2
				s1.881,4.2,4.2,4.2c2.318,0,4.199-1.881,4.199-4.2S12.319-14.2,10.001-14.2L10.001-14.2z"/>
		</g>
	</g>
	<polygon fill="none" points="24,-24 0,-24 0,0 24,0 	"/>
	<g>
		<g opacity="0.1">
			<path fill="#231F20" d="M10-4c3.206,0,5.817-2.516,5.984-5.68c0.002,0.062,0.017,0.118,0.017,0.18c0,3.313-2.687,6-6.001,6
				s-6-2.687-6-6c0-0.084,0.01-0.166,0.013-0.25C4.145-6.553,6.77-4,10-4z M19.691-17.701l-4.19,4.201h-0.657
				c-0.09-0.123-0.166-0.257-0.265-0.373L14.707-14h0.794l4.19-4.201c0.141-0.141,0.215-0.314,0.259-0.494
				C20.035-18.35,19.961-17.973,19.691-17.701z M10-13.7c-2.233,0-4.043,1.749-4.175,3.95C5.82-9.834,5.8-9.914,5.8-10
				c0-2.319,1.881-4.2,4.2-4.2c2.318,0,4.199,1.881,4.199,4.2c0,0.086-0.02,0.166-0.025,0.25C14.042-11.951,12.232-13.7,10-13.7z"/>
		</g>
	</g>
</symbol>
<symbol  id="ic_x5F_searchinput_x5F_lg_x5F_lightreg" viewBox="0 -24 24 24">
	<g>
		<linearGradient id="SVGID_36_" gradientUnits="userSpaceOnUse" x1="12.0005" y1="-3.875" x2="12.0005" y2="-20.3917">
			<stop  offset="0" style="stop-color:#FFFFFF;stop-opacity:0.9"/>
			<stop  offset="1" style="stop-color:#FFFFFF;stop-opacity:0.85"/>
		</linearGradient>
		<path fill="url(#SVGID_36_)" d="M19.692-18.201L15.502-14h-0.794l-0.128,0.127c0.886,1.046,1.422,2.396,1.422,3.873
			c0,3.313-2.687,6-6.001,6s-6-2.687-6-6s2.686-6,6-6c1.478,0,2.827,0.535,3.872,1.42l0.128-0.128V-15.5l4.2-4.19
			c0.412-0.411,1.08-0.413,1.491-0.002C20.102-19.278,20.103-18.613,19.692-18.201z M10.001-14.2c-2.319,0-4.2,1.881-4.2,4.2
			s1.881,4.2,4.2,4.2c2.318,0,4.199-1.881,4.199-4.2S12.319-14.2,10.001-14.2z"/>
		<g opacity="0.05">
			<path fill="#FFFFFF" d="M10.001-4.5c3.033,0,5.501-2.468,5.501-5.5c0-1.297-0.463-2.558-1.303-3.55l-0.298-0.352l-0.351-0.297
				c-0.991-0.84-2.251-1.302-3.549-1.302c-3.033,0-5.5,2.468-5.5,5.5S6.968-4.5,10.001-4.5 M10.001-14.7
				c2.591,0,4.699,2.108,4.699,4.7s-2.108,4.7-4.699,4.7c-2.592,0-4.7-2.108-4.7-4.7S7.409-14.7,10.001-14.7 M14.246-14.246
				l0.11-0.108l0.146-0.146h0.206h0.586l4.043-4.054c0.215-0.216,0.214-0.569,0.001-0.785c-0.104-0.104-0.242-0.161-0.39-0.161
				c-0.149,0-0.29,0.059-0.395,0.163l-4.053,4.044v0.585v0.207l-0.146,0.146L14.246-14.246 M10.001-4c-3.314,0-6-2.687-6-6
				s2.686-6,6-6c1.478,0,2.827,0.535,3.872,1.42l0.128-0.128V-15.5l4.2-4.19c0.207-0.206,0.478-0.31,0.748-0.31
				c0.269,0,0.538,0.103,0.743,0.308c0.409,0.414,0.41,1.079,0,1.491L15.502-14h-0.794l-0.128,0.127
				c0.886,1.046,1.422,2.396,1.422,3.873C16.002-6.687,13.315-4,10.001-4L10.001-4z M10.001-14.2c-2.319,0-4.2,1.881-4.2,4.2
				s1.881,4.2,4.2,4.2c2.318,0,4.199-1.881,4.199-4.2S12.319-14.2,10.001-14.2L10.001-14.2z"/>
		</g>
	</g>
	<polygon fill="none" points="24,-24 0,-24 0,0 24,0 	"/>
	<g>
		<g opacity="0.2">
			<path fill="#231F20" d="M10-4c3.206,0,5.817-2.516,5.985-5.68c0.001,0.062,0.016,0.118,0.016,0.18c0,3.313-2.687,6-6.001,6
				s-6-2.687-6-6c0-0.084,0.009-0.166,0.013-0.25C4.145-6.553,6.77-4,10-4z M19.691-17.701l-4.19,4.201h-0.657
				c-0.09-0.123-0.167-0.257-0.265-0.373L14.707-14h0.794l4.19-4.201c0.14-0.141,0.215-0.314,0.259-0.494
				C20.035-18.35,19.961-17.973,19.691-17.701z M10-13.7c-2.233,0-4.043,1.749-4.175,3.95C5.82-9.834,5.8-9.914,5.8-10
				c0-2.319,1.881-4.2,4.2-4.2c2.318,0,4.199,1.881,4.199,4.2c0,0.086-0.02,0.166-0.025,0.25C14.042-11.951,12.233-13.7,10-13.7z"/>
		</g>
	</g>
</symbol>
<symbol  id="ic_x5F_settings_x5F_sm_x5F_darkalt" viewBox="0 -24 24 24">
	<polygon fill="none" points="24,-24 0,-24 0,0 24,0 	"/>
	<g>
		<g opacity="0.25">
			<linearGradient id="SVGID_37_" gradientUnits="userSpaceOnUse" x1="12" y1="-22" x2="12" y2="-2">
				<stop  offset="0" style="stop-color:#000000;stop-opacity:0.7"/>
				<stop  offset="1" style="stop-color:#000000;stop-opacity:0.6"/>
			</linearGradient>
			<path fill="url(#SVGID_37_)" d="M21.619-10.514l-2.418,0.595c-0.156,0.542-0.367,1.06-0.636,1.542l1.286,2.127
				c0.117,0.193,0.094,0.447-0.074,0.613l-1.414,1.414c-0.166,0.168-0.42,0.191-0.613,0.074l-2.127-1.286
				c-0.482,0.267-1,0.479-1.541,0.636l-0.596,2.418C13.433-2.162,13.236-2,13-2h-2c-0.236,0-0.434-0.162-0.486-0.381L9.918-4.799
				C9.377-4.955,8.859-5.168,8.375-5.436L6.248-4.147C6.056-4.031,5.803-4.056,5.636-4.223L4.221-5.637
				c-0.166-0.167-0.19-0.42-0.074-0.612l1.287-2.128C5.166-8.861,4.955-9.378,4.799-9.919l-2.418-0.595C2.162-10.567,2-10.764,2-11
				v-2c0-0.236,0.162-0.433,0.381-0.486l2.418-0.595c0.156-0.542,0.369-1.059,0.635-1.542l-1.287-2.129
				c-0.116-0.192-0.092-0.445,0.074-0.612l1.415-1.414c0.167-0.167,0.42-0.191,0.612-0.075l2.129,1.288
				c0.482-0.268,1-0.479,1.541-0.636l0.596-2.418C10.566-21.838,10.764-22,11-22h2c0.236,0,0.433,0.162,0.486,0.381l0.596,2.418
				c0.541,0.156,1.057,0.368,1.541,0.636l2.127-1.287c0.193-0.117,0.447-0.094,0.613,0.074l1.414,1.414
				c0.168,0.166,0.191,0.42,0.074,0.613l-1.287,2.127c0.268,0.483,0.48,1.001,0.637,1.543l2.418,0.595
				C21.838-13.433,22-13.236,22-13v2C22-10.764,21.838-10.567,21.619-10.514z M16.1-12c0-2.264-1.836-4.1-4.1-4.1
				c-2.266,0-4.101,1.836-4.101,4.1c0,2.265,1.835,4.1,4.101,4.1C14.264-7.9,16.1-9.735,16.1-12z"/>
		</g>
		<g opacity="0.03">
			<path d="M13-2.5L13-2.5l0.597-2.418l0.069-0.281l0.278-0.08c0.507-0.146,0.991-0.346,1.438-0.593l0.253-0.14l0.248,0.149
				l2.128,1.286l1.414-1.415l-1.286-2.127l-0.15-0.248l0.141-0.254c0.245-0.439,0.444-0.923,0.592-1.438l0.08-0.277l0.281-0.069
				L21.5-11l0-2.001l-2.418-0.595l-0.281-0.069l-0.08-0.277c-0.146-0.508-0.346-0.992-0.594-1.439l-0.14-0.253l0.15-0.248
				l1.287-2.128l-1.415-1.414l-2.127,1.287l-0.248,0.149l-0.253-0.14c-0.447-0.247-0.931-0.446-1.438-0.593l-0.278-0.08
				l-0.069-0.281L13-21.5h-2.001l-0.596,2.418l-0.069,0.281l-0.278,0.08c-0.51,0.147-0.994,0.347-1.437,0.593l-0.253,0.141
				l-0.248-0.15l-2.129-1.287l-1.415,1.414l1.287,2.129l0.149,0.247l-0.139,0.253c-0.248,0.45-0.447,0.935-0.592,1.439l-0.08,0.277
				l-0.281,0.069L2.5-13l0,2.001l2.418,0.595l0.281,0.069l0.08,0.277c0.147,0.511,0.347,0.995,0.592,1.438l0.14,0.254l-0.15,0.247
				L4.574-5.99l1.415,1.415l2.127-1.288l0.247-0.149l0.253,0.14c0.449,0.247,0.933,0.447,1.44,0.594l0.278,0.08l0.069,0.281L11-2.5
				H13 M12-16.6c2.536,0,4.6,2.063,4.6,4.6S14.536-7.4,12-7.4c-2.537,0-4.601-2.063-4.601-4.6S9.463-16.6,12-16.6 M13-2h-2
				c-0.236,0-0.434-0.162-0.486-0.381L9.918-4.799C9.377-4.955,8.859-5.168,8.375-5.436L6.248-4.147
				C6.169-4.1,6.079-4.075,5.99-4.075c-0.128,0-0.256-0.049-0.354-0.147L4.221-5.637c-0.166-0.167-0.19-0.42-0.074-0.612
				l1.287-2.128C5.166-8.861,4.955-9.378,4.799-9.919l-2.418-0.595C2.162-10.567,2-10.764,2-11v-2c0-0.236,0.162-0.433,0.381-0.486
				l2.418-0.595c0.156-0.542,0.369-1.059,0.635-1.542l-1.287-2.129c-0.116-0.192-0.092-0.445,0.074-0.612l1.415-1.414
				c0.098-0.099,0.226-0.147,0.354-0.147c0.089,0,0.179,0.024,0.258,0.072l2.129,1.288c0.482-0.268,1-0.479,1.541-0.636l0.596-2.418
				C10.566-21.838,10.764-22,11-22h2c0.236,0,0.433,0.162,0.486,0.381l0.596,2.418c0.541,0.156,1.057,0.368,1.541,0.636l2.127-1.287
				c0.08-0.049,0.17-0.073,0.261-0.073c0.128,0,0.255,0.049,0.353,0.147l1.414,1.414c0.168,0.166,0.191,0.42,0.074,0.613
				l-1.287,2.127c0.268,0.483,0.48,1.001,0.637,1.543l2.418,0.595C21.838-13.433,22-13.236,22-13v2c0,0.236-0.162,0.433-0.381,0.486
				l-2.418,0.595c-0.156,0.542-0.367,1.06-0.636,1.542l1.286,2.127c0.117,0.193,0.094,0.447-0.074,0.613l-1.414,1.414
				c-0.097,0.099-0.225,0.147-0.353,0.147c-0.09,0-0.181-0.024-0.261-0.073l-2.127-1.286c-0.482,0.267-1,0.479-1.541,0.636
				l-0.596,2.418C13.433-2.162,13.236-2,13-2L13-2z M12-16.1c-2.266,0-4.101,1.836-4.101,4.1c0,2.265,1.835,4.1,4.101,4.1
				c2.264,0,4.1-1.835,4.1-4.1C16.1-14.264,14.264-16.1,12-16.1L12-16.1z"/>
		</g>
	</g>
	<g>
		<g opacity="0.08">
			<path fill="#231F20" d="M4.159-18.233l1.276,2.109v0.5l-1.287-2.127C4.057-17.902,4.078-18.08,4.159-18.233z M12-16.1
				c-2.18,0-3.944,1.705-4.075,3.85c-0.005-0.084-0.025-0.164-0.025-0.25c0-2.264,1.835-4.1,4.101-4.1c2.264,0,4.1,1.836,4.1,4.1
				c0,0.086-0.02,0.166-0.025,0.25C15.942-14.395,14.178-16.1,12-16.1z M5.435-8.877v0.5c-0.05-0.09-0.088-0.187-0.134-0.278
				C5.1-9.059,4.926-9.478,4.799-9.919l-2.418-0.595C2.162-10.567,2-10.764,2-11v-0.5c0,0.236,0.162,0.433,0.381,0.486l2.418,0.595
				C4.955-9.877,5.166-9.359,5.435-8.877z M21.619-10.514l-2.418,0.595c-0.127,0.441-0.301,0.86-0.502,1.264
				c-0.046,0.092-0.084,0.188-0.134,0.278v-0.5c0.269-0.482,0.479-1,0.636-1.542l2.418-0.595C21.838-11.067,22-11.264,22-11.5v0.5
				C22-10.764,21.838-10.567,21.619-10.514z M19.841-6.268l0.011,0.018c0.117,0.193,0.094,0.447-0.074,0.613l-1.414,1.414
				c-0.166,0.168-0.42,0.191-0.613,0.074l-2.127-1.286c-0.482,0.267-1,0.479-1.541,0.636l-0.596,2.418C13.433-2.162,13.236-2,13-2
				h-2c-0.236,0-0.434-0.162-0.486-0.381L9.918-4.799C9.377-4.955,8.859-5.168,8.375-5.436L6.248-4.147
				C6.056-4.031,5.803-4.056,5.636-4.223L4.221-5.637c-0.166-0.167-0.19-0.42-0.074-0.612l0.011-0.019
				c0.023,0.043,0.026,0.094,0.063,0.131l1.415,1.414c0.167,0.167,0.42,0.191,0.612,0.075l2.127-1.288
				c0.484,0.268,1.002,0.48,1.543,0.637l0.596,2.418C10.566-2.662,10.764-2.5,11-2.5h2c0.236,0,0.433-0.162,0.486-0.381l0.596-2.418
				c0.541-0.156,1.059-0.369,1.541-0.636l2.127,1.286c0.193,0.117,0.447,0.094,0.613-0.074l1.414-1.414
				C19.814-6.174,19.818-6.225,19.841-6.268z M18.564-15.624v-0.5l1.276-2.109c0.082,0.153,0.102,0.331,0.011,0.482L18.564-15.624z"
				/>
		</g>
	</g>
	<path fill="#FFFFFF" fill-opacity="0.2" d="M12-8.4c2.178,0,3.942-1.703,4.074-3.85C16.08-12.166,16.1-12.086,16.1-12
		c0,2.265-1.836,4.1-4.1,4.1c-2.266,0-4.101-1.835-4.101-4.1c0-0.086,0.02-0.166,0.025-0.25C8.056-10.104,9.82-8.4,12-8.4z
		 M5.301-8.655c0.046,0.092,0.084,0.188,0.134,0.278L4.159-6.268C4.111-6.188,4.076-6.081,4.075-5.992v-0.539
		c0-0.076,0.031-0.15,0.073-0.219L5.301-8.655z M19.852-6.75c0.042,0.068,0.073,0.143,0.073,0.219v0.539
		c-0.001-0.089-0.036-0.196-0.084-0.275l-1.275-2.109c0.05-0.09,0.088-0.187,0.134-0.278L19.852-6.75z M21.619-13.486l-2.418-0.595
		c-0.156-0.542-0.369-1.06-0.637-1.543l0.134-0.222c0.201,0.404,0.376,0.823,0.503,1.265l2.418,0.595
		C21.838-13.933,22-13.736,22-13.5v0.5C22-13.236,21.838-13.433,21.619-13.486z M19.777-18.364l-1.414-1.414
		c-0.166-0.168-0.42-0.191-0.613-0.074l-2.127,1.287c-0.484-0.268-1-0.479-1.541-0.636l-0.596-2.418C13.433-21.838,13.236-22,13-22
		h-2c-0.236,0-0.433,0.162-0.486,0.381l-0.596,2.418c-0.541,0.156-1.057,0.368-1.541,0.636L6.25-19.853
		c-0.193-0.117-0.447-0.094-0.613,0.074l-1.414,1.414c-0.037,0.036-0.041,0.087-0.063,0.131c-0.044,0.083-0.07,0.173-0.071,0.261
		v-0.547c0.002-0.125,0.038-0.25,0.134-0.345l1.414-1.414c0.166-0.168,0.42-0.191,0.613-0.074l2.127,1.287
		c0.484-0.268,1-0.479,1.541-0.636l0.596-2.418C10.567-22.338,10.764-22.5,11-22.5h2c0.236,0,0.433,0.162,0.486,0.381l0.596,2.418
		c0.541,0.156,1.057,0.368,1.541,0.636l2.127-1.287c0.193-0.117,0.447-0.094,0.613,0.074l1.414,1.414
		c0.097,0.095,0.132,0.22,0.134,0.345v0.547c0-0.088-0.027-0.178-0.071-0.261C19.818-18.277,19.814-18.328,19.777-18.364z
		 M5.3-15.844l0.134,0.221c-0.266,0.483-0.479,1-0.635,1.542l-2.418,0.595C2.162-13.433,2-13.236,2-13v-0.5
		c0-0.236,0.162-0.433,0.381-0.486l2.418-0.595C4.926-15.021,5.1-15.441,5.3-15.844z"/>
</symbol>
<symbol  id="ic_x5F_settings_x5F_sm_x5F_darkreg" viewBox="0 -24 24 24">
	<polygon fill="none" points="24,-24 0,-24 0,0 24,0 	"/>
	<g>
		<g>
			<linearGradient id="SVGID_38_" gradientUnits="userSpaceOnUse" x1="12" y1="-22" x2="12" y2="-2">
				<stop  offset="0" style="stop-color:#000000;stop-opacity:0.7"/>
				<stop  offset="1" style="stop-color:#000000;stop-opacity:0.6"/>
			</linearGradient>
			<path fill="url(#SVGID_38_)" d="M21.619-10.514l-2.418,0.595c-0.156,0.542-0.367,1.06-0.636,1.542l1.286,2.127
				c0.117,0.193,0.094,0.447-0.074,0.613l-1.414,1.414c-0.166,0.168-0.42,0.191-0.613,0.074l-2.127-1.286
				c-0.482,0.267-1,0.479-1.541,0.636l-0.596,2.418C13.433-2.162,13.236-2,13-2h-2c-0.236,0-0.434-0.162-0.486-0.381L9.918-4.799
				C9.377-4.955,8.859-5.168,8.375-5.436L6.248-4.147C6.056-4.031,5.803-4.056,5.636-4.223L4.221-5.637
				c-0.166-0.167-0.19-0.42-0.074-0.612l1.287-2.128C5.166-8.861,4.955-9.378,4.799-9.919l-2.418-0.595C2.162-10.567,2-10.764,2-11
				v-2c0-0.236,0.162-0.433,0.381-0.486l2.418-0.595c0.156-0.542,0.369-1.059,0.635-1.542l-1.287-2.129
				c-0.116-0.192-0.092-0.445,0.074-0.612l1.415-1.414c0.167-0.167,0.42-0.191,0.612-0.075l2.129,1.288
				c0.482-0.268,1-0.479,1.541-0.636l0.596-2.418C10.566-21.838,10.764-22,11-22h2c0.236,0,0.433,0.162,0.486,0.381l0.596,2.418
				c0.541,0.156,1.057,0.368,1.541,0.636l2.127-1.287c0.193-0.117,0.447-0.094,0.613,0.074l1.414,1.414
				c0.168,0.166,0.191,0.42,0.074,0.613l-1.287,2.127c0.268,0.483,0.48,1.001,0.637,1.543l2.418,0.595
				C21.838-13.433,22-13.236,22-13v2C22-10.764,21.838-10.567,21.619-10.514z M16.1-12c0-2.264-1.836-4.1-4.1-4.1
				c-2.266,0-4.101,1.836-4.101,4.1c0,2.265,1.835,4.1,4.101,4.1C14.264-7.9,16.1-9.735,16.1-12z"/>
		</g>
		<g opacity="0.05">
			<path d="M13-2.5L13-2.5l0.597-2.418l0.069-0.281l0.278-0.08c0.507-0.146,0.991-0.346,1.438-0.593l0.253-0.14l0.248,0.149
				l2.128,1.286l1.414-1.415l-1.286-2.127l-0.15-0.248l0.141-0.254c0.245-0.439,0.444-0.923,0.592-1.438l0.08-0.277l0.281-0.069
				L21.5-11l0-2.001l-2.418-0.595l-0.281-0.069l-0.08-0.277c-0.146-0.508-0.346-0.992-0.594-1.439l-0.14-0.253l0.15-0.248
				l1.287-2.128l-1.415-1.414l-2.127,1.287l-0.248,0.149l-0.253-0.14c-0.447-0.247-0.931-0.446-1.438-0.593l-0.278-0.08
				l-0.069-0.281L13-21.5h-2.001l-0.596,2.418l-0.069,0.281l-0.278,0.08c-0.51,0.147-0.994,0.347-1.437,0.593l-0.253,0.141
				l-0.248-0.15l-2.129-1.287l-1.415,1.414l1.287,2.129l0.149,0.247l-0.139,0.253c-0.248,0.45-0.447,0.935-0.592,1.439l-0.08,0.277
				l-0.281,0.069L2.5-13l0,2.001l2.418,0.595l0.281,0.069l0.08,0.277c0.147,0.511,0.347,0.995,0.592,1.438l0.14,0.254l-0.15,0.247
				L4.574-5.99l1.415,1.415l2.127-1.288l0.247-0.149l0.253,0.14c0.449,0.247,0.933,0.447,1.44,0.594l0.278,0.08l0.069,0.281L11-2.5
				H13 M12-16.6c2.536,0,4.6,2.063,4.6,4.6S14.536-7.4,12-7.4c-2.537,0-4.601-2.063-4.601-4.6S9.463-16.6,12-16.6 M13-2h-2
				c-0.236,0-0.434-0.162-0.486-0.381L9.918-4.799C9.377-4.955,8.859-5.168,8.375-5.436L6.248-4.147
				C6.169-4.1,6.079-4.075,5.99-4.075c-0.128,0-0.256-0.049-0.354-0.147L4.221-5.637c-0.166-0.167-0.19-0.42-0.074-0.612
				l1.287-2.128C5.166-8.861,4.955-9.378,4.799-9.919l-2.418-0.595C2.162-10.567,2-10.764,2-11v-2c0-0.236,0.162-0.433,0.381-0.486
				l2.418-0.595c0.156-0.542,0.369-1.059,0.635-1.542l-1.287-2.129c-0.116-0.192-0.092-0.445,0.074-0.612l1.415-1.414
				c0.098-0.099,0.226-0.147,0.354-0.147c0.089,0,0.179,0.024,0.258,0.072l2.129,1.288c0.482-0.268,1-0.479,1.541-0.636l0.596-2.418
				C10.566-21.838,10.764-22,11-22h2c0.236,0,0.433,0.162,0.486,0.381l0.596,2.418c0.541,0.156,1.057,0.368,1.541,0.636l2.127-1.287
				c0.08-0.049,0.17-0.073,0.261-0.073c0.128,0,0.255,0.049,0.353,0.147l1.414,1.414c0.168,0.166,0.191,0.42,0.074,0.613
				l-1.287,2.127c0.268,0.483,0.48,1.001,0.637,1.543l2.418,0.595C21.838-13.433,22-13.236,22-13v2c0,0.236-0.162,0.433-0.381,0.486
				l-2.418,0.595c-0.156,0.542-0.367,1.06-0.636,1.542l1.286,2.127c0.117,0.193,0.094,0.447-0.074,0.613l-1.414,1.414
				c-0.097,0.099-0.225,0.147-0.353,0.147c-0.09,0-0.181-0.024-0.261-0.073l-2.127-1.286c-0.482,0.267-1,0.479-1.541,0.636
				l-0.596,2.418C13.433-2.162,13.236-2,13-2L13-2z M12-16.1c-2.266,0-4.101,1.836-4.101,4.1c0,2.265,1.835,4.1,4.101,4.1
				c2.264,0,4.1-1.835,4.1-4.1C16.1-14.264,14.264-16.1,12-16.1L12-16.1z"/>
		</g>
	</g>
	<g>
		<g opacity="0.3">
			<path fill="#231F20" d="M4.159-18.233l1.276,2.109v0.5l-1.287-2.127C4.057-17.902,4.078-18.08,4.159-18.233z M12-16.1
				c-2.18,0-3.944,1.705-4.075,3.85c-0.005-0.084-0.025-0.164-0.025-0.25c0-2.264,1.835-4.1,4.101-4.1c2.264,0,4.1,1.836,4.1,4.1
				c0,0.086-0.02,0.166-0.025,0.25C15.942-14.395,14.178-16.1,12-16.1z M5.435-8.877v0.5c-0.05-0.09-0.088-0.187-0.134-0.278
				C5.1-9.059,4.926-9.478,4.799-9.919l-2.418-0.595C2.162-10.567,2-10.764,2-11v-0.5c0,0.236,0.162,0.433,0.381,0.486l2.418,0.595
				C4.955-9.877,5.166-9.359,5.435-8.877z M21.619-10.514l-2.418,0.595c-0.127,0.441-0.301,0.86-0.502,1.264
				c-0.046,0.092-0.084,0.188-0.134,0.278v-0.5c0.269-0.482,0.479-1,0.636-1.542l2.418-0.595C21.838-11.067,22-11.264,22-11.5v0.5
				C22-10.764,21.838-10.567,21.619-10.514z M19.841-6.268l0.011,0.018c0.117,0.193,0.094,0.447-0.074,0.613l-1.414,1.414
				c-0.166,0.168-0.42,0.191-0.613,0.074l-2.127-1.286c-0.482,0.267-1,0.479-1.541,0.636l-0.596,2.418C13.433-2.162,13.236-2,13-2
				h-2c-0.236,0-0.434-0.162-0.486-0.381L9.918-4.799C9.377-4.955,8.859-5.168,8.375-5.436L6.248-4.147
				C6.056-4.031,5.803-4.056,5.636-4.223L4.221-5.637c-0.166-0.167-0.19-0.42-0.074-0.612l0.011-0.019
				c0.023,0.043,0.026,0.094,0.063,0.131l1.415,1.414c0.167,0.167,0.42,0.191,0.612,0.075l2.127-1.288
				c0.484,0.268,1.002,0.48,1.543,0.637l0.596,2.418C10.566-2.662,10.764-2.5,11-2.5h2c0.236,0,0.433-0.162,0.486-0.381l0.596-2.418
				c0.541-0.156,1.059-0.369,1.541-0.636l2.127,1.286c0.193,0.117,0.447,0.094,0.613-0.074l1.414-1.414
				C19.814-6.174,19.818-6.225,19.841-6.268z M18.564-15.624v-0.5l1.276-2.109c0.082,0.153,0.102,0.331,0.011,0.482L18.564-15.624z"
				/>
		</g>
	</g>
	<path fill="#FFFFFF" fill-opacity="0.3" d="M12-8.4c2.178,0,3.942-1.703,4.074-3.85C16.08-12.166,16.1-12.086,16.1-12
		c0,2.265-1.836,4.1-4.1,4.1c-2.266,0-4.101-1.835-4.101-4.1c0-0.086,0.02-0.166,0.025-0.25C8.056-10.104,9.82-8.4,12-8.4z
		 M5.301-8.655c0.046,0.092,0.084,0.188,0.134,0.278L4.159-6.268C4.111-6.188,4.076-6.081,4.075-5.992v-0.539
		c0-0.076,0.031-0.15,0.073-0.219L5.301-8.655z M19.852-6.75c0.042,0.068,0.073,0.143,0.073,0.219v0.539
		c-0.001-0.089-0.036-0.196-0.084-0.275l-1.275-2.109c0.05-0.09,0.088-0.187,0.134-0.278L19.852-6.75z M21.619-13.486l-2.418-0.595
		c-0.156-0.542-0.369-1.06-0.637-1.543l0.134-0.222c0.201,0.404,0.376,0.823,0.503,1.265l2.418,0.595
		C21.838-13.933,22-13.736,22-13.5v0.5C22-13.236,21.838-13.433,21.619-13.486z M19.777-18.364l-1.414-1.414
		c-0.166-0.168-0.42-0.191-0.613-0.074l-2.127,1.287c-0.484-0.268-1-0.479-1.541-0.636l-0.596-2.418C13.433-21.838,13.236-22,13-22
		h-2c-0.236,0-0.433,0.162-0.486,0.381l-0.596,2.418c-0.541,0.156-1.057,0.368-1.541,0.636L6.25-19.853
		c-0.193-0.117-0.447-0.094-0.613,0.074l-1.414,1.414c-0.037,0.036-0.041,0.087-0.063,0.131c-0.044,0.083-0.07,0.173-0.071,0.261
		v-0.547c0.002-0.125,0.038-0.25,0.134-0.345l1.414-1.414c0.166-0.168,0.42-0.191,0.613-0.074l2.127,1.287
		c0.484-0.268,1-0.479,1.541-0.636l0.596-2.418C10.567-22.338,10.764-22.5,11-22.5h2c0.236,0,0.433,0.162,0.486,0.381l0.596,2.418
		c0.541,0.156,1.057,0.368,1.541,0.636l2.127-1.287c0.193-0.117,0.447-0.094,0.613,0.074l1.414,1.414
		c0.097,0.095,0.132,0.22,0.134,0.345v0.547c0-0.088-0.027-0.178-0.071-0.261C19.818-18.277,19.814-18.328,19.777-18.364z
		 M5.3-15.844l0.134,0.221c-0.266,0.483-0.479,1-0.635,1.542l-2.418,0.595C2.162-13.433,2-13.236,2-13v-0.5
		c0-0.236,0.162-0.433,0.381-0.486l2.418-0.595C4.926-15.021,5.1-15.441,5.3-15.844z"/>
</symbol>
<symbol  id="ic_x5F_settings_x5F_sm_x5F_flat" viewBox="0 -24 24 24">
	<polygon fill="none" points="24,-24 0,-24 0,0 24,0 	"/>
	<path fill="#231F20" d="M21.619-10.514l-2.418,0.595c-0.156,0.542-0.367,1.06-0.636,1.542l1.286,2.127
		c0.117,0.193,0.094,0.447-0.074,0.613l-1.414,1.414c-0.166,0.168-0.42,0.191-0.613,0.074l-2.127-1.286
		c-0.482,0.267-1,0.479-1.541,0.636l-0.596,2.418C13.433-2.162,13.236-2,13-2h-2c-0.236,0-0.434-0.162-0.486-0.381L9.918-4.799
		C9.377-4.955,8.859-5.168,8.375-5.436L6.248-4.147C6.056-4.031,5.803-4.056,5.636-4.223L4.221-5.637
		c-0.166-0.167-0.19-0.42-0.074-0.612l1.287-2.128C5.166-8.861,4.955-9.378,4.799-9.919l-2.418-0.595C2.162-10.567,2-10.764,2-11v-2
		c0-0.236,0.162-0.433,0.381-0.486l2.418-0.595c0.156-0.542,0.369-1.059,0.635-1.542l-1.287-2.129
		c-0.116-0.192-0.092-0.445,0.074-0.612l1.415-1.414c0.167-0.167,0.42-0.191,0.612-0.075l2.129,1.288
		c0.482-0.268,1-0.479,1.541-0.636l0.596-2.418C10.566-21.838,10.764-22,11-22h2c0.236,0,0.433,0.162,0.486,0.381l0.596,2.418
		c0.541,0.156,1.057,0.368,1.541,0.636l2.127-1.287c0.193-0.117,0.447-0.094,0.613,0.074l1.414,1.414
		c0.168,0.166,0.191,0.42,0.074,0.613l-1.287,2.127c0.268,0.483,0.48,1.001,0.637,1.543l2.418,0.595C21.838-13.433,22-13.236,22-13
		v2C22-10.764,21.838-10.567,21.619-10.514z M16.1-12c0-2.264-1.836-4.1-4.1-4.1c-2.266,0-4.101,1.836-4.101,4.1
		c0,2.265,1.835,4.1,4.101,4.1C14.264-7.9,16.1-9.735,16.1-12z"/>
</symbol>
<symbol  id="ic_x5F_settings_x5F_sm_x5F_lightalt" viewBox="0 -24 24 24">
	<polygon fill="none" points="24,-24 0,-24 0,0 24,0 	"/>
	<g>
		<g opacity="0.25">
			
				<linearGradient id="SVGID_39_" gradientUnits="userSpaceOnUse" x1="12" y1="-21169.8438" x2="12" y2="-21190.4902" gradientTransform="matrix(1 0 0 -1 0 -21192)">
				<stop  offset="0" style="stop-color:#FFFFFF;stop-opacity:0.9"/>
				<stop  offset="1" style="stop-color:#FFFFFF;stop-opacity:0.85"/>
			</linearGradient>
			<path fill="url(#SVGID_39_)" d="M22-13v2c0,0.236-0.162,0.433-0.381,0.486l-2.418,0.595c-0.156,0.542-0.369,1.06-0.637,1.543
				l1.287,2.127c0.117,0.193,0.094,0.447-0.074,0.613l-1.414,1.414c-0.166,0.168-0.42,0.191-0.613,0.074l-2.127-1.287
				c-0.484,0.268-1,0.479-1.541,0.636l-0.596,2.418C13.433-2.162,13.236-2,13-2h-2c-0.236,0-0.434-0.162-0.486-0.381L9.918-4.799
				C9.377-4.955,8.859-5.167,8.377-5.435L6.248-4.146C6.056-4.03,5.803-4.055,5.636-4.222L4.221-5.636
				c-0.166-0.167-0.19-0.42-0.074-0.612l1.287-2.129c-0.266-0.483-0.479-1-0.635-1.542l-2.418-0.595C2.162-10.567,2-10.764,2-11v-2
				c0-0.236,0.162-0.433,0.381-0.486l2.418-0.595c0.156-0.541,0.367-1.058,0.635-1.542l-1.287-2.128
				c-0.116-0.192-0.092-0.445,0.074-0.612l1.415-1.414c0.167-0.167,0.42-0.191,0.612-0.075l2.127,1.288
				c0.484-0.268,1.002-0.48,1.543-0.637l0.596-2.418C10.566-21.838,10.764-22,11-22h2c0.236,0,0.433,0.162,0.486,0.381l0.596,2.418
				c0.541,0.156,1.059,0.369,1.541,0.636l2.127-1.286c0.193-0.117,0.447-0.094,0.613,0.074l1.414,1.414
				c0.168,0.166,0.191,0.42,0.074,0.613l-1.286,2.127c0.269,0.482,0.479,1,0.636,1.542l2.418,0.595C21.838-13.433,22-13.236,22-13z
				 M12-16.1c-2.266,0-4.101,1.835-4.101,4.1c0,2.264,1.835,4.1,4.101,4.1c2.264,0,4.1-1.836,4.1-4.1
				C16.1-14.265,14.264-16.1,12-16.1z"/>
		</g>
		<g opacity="0.05">
			<path fill="#FFFFFF" d="M13-2.5L13-2.5l0.597-2.418l0.069-0.281l0.278-0.08c0.507-0.146,0.991-0.346,1.438-0.593l0.253-0.14
				l0.248,0.149l2.128,1.287l1.414-1.415l-1.287-2.127l-0.15-0.248l0.14-0.253c0.248-0.447,0.447-0.932,0.594-1.439l0.08-0.277
				l0.281-0.069L21.5-11l0-2.001l-2.418-0.595l-0.281-0.069l-0.08-0.277c-0.148-0.515-0.347-0.998-0.592-1.438l-0.141-0.254
				l0.15-0.248l1.286-2.128l-1.415-1.414l-2.127,1.286l-0.248,0.149l-0.253-0.14c-0.447-0.247-0.931-0.446-1.438-0.593l-0.278-0.08
				l-0.069-0.281L13-21.5h-2.001l-0.596,2.418l-0.069,0.281l-0.278,0.08c-0.507,0.146-0.991,0.347-1.44,0.594l-0.253,0.14
				l-0.247-0.149l-2.127-1.287L4.574-18.01l1.287,2.128l0.15,0.247l-0.14,0.254c-0.245,0.443-0.444,0.928-0.592,1.438l-0.08,0.277
				l-0.281,0.069L2.5-13l0,2.001l2.418,0.595l0.281,0.069l0.08,0.277c0.146,0.505,0.345,0.989,0.592,1.439l0.139,0.253L5.861-8.118
				L4.574-5.989l1.415,1.415l2.129-1.288l0.248-0.15L8.62-5.872c0.443,0.246,0.927,0.445,1.437,0.593l0.278,0.08l0.069,0.281L11-2.5
				H13 M12-16.6c2.536,0,4.6,2.063,4.6,4.6S14.536-7.4,12-7.4c-2.537,0-4.601-2.063-4.601-4.6S9.463-16.6,12-16.6 M13-2h-2
				c-0.236,0-0.434-0.162-0.486-0.381L9.918-4.799C9.377-4.955,8.859-5.167,8.377-5.435L6.248-4.146
				C6.169-4.099,6.079-4.074,5.99-4.074c-0.128,0-0.256-0.049-0.354-0.147L4.221-5.636c-0.166-0.167-0.19-0.42-0.074-0.612
				l1.287-2.129c-0.266-0.483-0.479-1-0.635-1.542l-2.418-0.595C2.162-10.567,2-10.764,2-11v-2c0-0.236,0.162-0.433,0.381-0.486
				l2.418-0.595c0.156-0.541,0.367-1.058,0.635-1.542l-1.287-2.128c-0.116-0.192-0.092-0.445,0.074-0.612l1.415-1.414
				c0.098-0.099,0.226-0.147,0.354-0.147c0.089,0,0.179,0.024,0.258,0.072l2.127,1.288c0.484-0.268,1.002-0.48,1.543-0.637
				l0.596-2.418C10.566-21.838,10.764-22,11-22h2c0.236,0,0.433,0.162,0.486,0.381l0.596,2.418c0.541,0.156,1.059,0.369,1.541,0.636
				l2.127-1.286c0.08-0.049,0.17-0.073,0.261-0.073c0.128,0,0.255,0.049,0.353,0.147l1.414,1.414
				c0.168,0.166,0.191,0.42,0.074,0.613l-1.286,2.127c0.269,0.482,0.479,1,0.636,1.542l2.418,0.595C21.838-13.433,22-13.236,22-13v2
				c0,0.236-0.162,0.433-0.381,0.486l-2.418,0.595c-0.156,0.542-0.369,1.06-0.637,1.543l1.287,2.127
				c0.117,0.193,0.094,0.447-0.074,0.613l-1.414,1.414c-0.097,0.099-0.225,0.147-0.353,0.147c-0.09,0-0.181-0.024-0.261-0.073
				l-2.127-1.287c-0.484,0.268-1,0.479-1.541,0.636l-0.596,2.418C13.433-2.162,13.236-2,13-2L13-2z M12-16.1
				c-2.266,0-4.101,1.835-4.101,4.1c0,2.264,1.835,4.1,4.101,4.1c2.264,0,4.1-1.836,4.1-4.1C16.1-14.265,14.264-16.1,12-16.1
				L12-16.1z"/>
		</g>
	</g>
	<g>
		<g opacity="0.1">
			<path fill="#231F20" d="M7.925-11.75C7.919-11.834,7.899-11.914,7.899-12c0-2.265,1.835-4.1,4.101-4.1c2.264,0,4.1,1.835,4.1,4.1
				c0,0.086-0.02,0.166-0.025,0.25C15.942-13.896,14.178-15.6,12-15.6C9.82-15.6,8.056-13.896,7.925-11.75z M4.148-17.25
				c-0.042-0.068-0.073-0.143-0.073-0.219v-0.539c0.001,0.089,0.036,0.196,0.084,0.275l1.275,2.109
				c-0.05,0.09-0.088,0.187-0.134,0.278L4.148-17.25z M18.699-15.345c-0.046-0.092-0.084-0.188-0.134-0.278l1.275-2.109
				c0.048-0.079,0.083-0.187,0.084-0.275v0.539c0,0.076-0.031,0.15-0.073,0.219L18.699-15.345z M22-11v0.5
				c0,0.236-0.162,0.433-0.381,0.486l-2.418,0.595c-0.127,0.441-0.302,0.86-0.503,1.265l-0.134-0.222
				c0.268-0.483,0.48-1.001,0.637-1.543l2.418-0.595C21.838-10.567,22-10.764,22-11z M19.841-5.767
				c0.044-0.083,0.07-0.173,0.071-0.261v0.547c-0.002,0.125-0.038,0.25-0.134,0.345l-1.414,1.414
				c-0.166,0.168-0.42,0.191-0.613,0.074l-2.127-1.287c-0.484,0.268-1,0.479-1.541,0.636l-0.596,2.418
				C13.433-1.662,13.236-1.5,13-1.5h-2c-0.236,0-0.433-0.162-0.486-0.381L9.918-4.299C9.377-4.455,8.861-4.667,8.377-4.935
				L6.25-3.647C6.057-3.53,5.803-3.554,5.637-3.722L4.223-5.136C4.126-5.23,4.09-5.355,4.088-5.48v-0.547
				c0,0.088,0.027,0.178,0.071,0.261c0.023,0.044,0.026,0.095,0.063,0.131l1.414,1.414C5.803-4.054,6.057-4.03,6.25-4.147
				l2.127-1.287c0.484,0.268,1,0.479,1.541,0.636l0.596,2.418C10.567-2.162,10.764-2,11-2h2c0.236,0,0.433-0.162,0.486-0.381
				l0.596-2.418c0.541-0.156,1.057-0.368,1.541-0.636l2.127,1.287c0.193,0.117,0.447,0.094,0.613-0.074l1.414-1.414
				C19.814-5.672,19.818-5.723,19.841-5.767z M4.799-9.419l-2.418-0.595C2.162-10.067,2-10.264,2-10.5V-11
				c0,0.236,0.162,0.433,0.381,0.486l2.418,0.595C4.955-9.377,5.168-8.86,5.434-8.377L5.3-8.156C5.1-8.559,4.926-8.979,4.799-9.419z
				"/>
		</g>
	</g>
</symbol>
<symbol  id="ic_x5F_settings_x5F_sm_x5F_lightreg" viewBox="0 -24 24 24">
	<polygon fill="none" points="24,-24 0,-24 0,0 24,0 	"/>
	<g>
		
			<linearGradient id="SVGID_40_" gradientUnits="userSpaceOnUse" x1="12" y1="-21169.8438" x2="12" y2="-21190.4902" gradientTransform="matrix(1 0 0 -1 0 -21192)">
			<stop  offset="0" style="stop-color:#FFFFFF;stop-opacity:0.9"/>
			<stop  offset="1" style="stop-color:#FFFFFF;stop-opacity:0.85"/>
		</linearGradient>
		<path fill="url(#SVGID_40_)" d="M22-13v2c0,0.236-0.162,0.433-0.381,0.486l-2.418,0.595c-0.156,0.542-0.369,1.06-0.637,1.543
			l1.287,2.127c0.117,0.193,0.094,0.447-0.074,0.613l-1.414,1.414c-0.166,0.168-0.42,0.191-0.613,0.074l-2.127-1.287
			c-0.484,0.268-1,0.479-1.541,0.636l-0.596,2.418C13.433-2.162,13.236-2,13-2h-2c-0.236,0-0.434-0.162-0.486-0.381L9.918-4.799
			C9.377-4.955,8.859-5.167,8.377-5.435L6.248-4.146C6.056-4.03,5.803-4.055,5.636-4.222L4.221-5.636
			c-0.166-0.167-0.19-0.42-0.074-0.612l1.287-2.129c-0.266-0.483-0.479-1-0.635-1.542l-2.418-0.595C2.162-10.567,2-10.764,2-11v-2
			c0-0.236,0.162-0.433,0.381-0.486l2.418-0.595c0.156-0.541,0.367-1.058,0.635-1.542l-1.287-2.128
			c-0.116-0.192-0.092-0.445,0.074-0.612l1.415-1.414c0.167-0.167,0.42-0.191,0.612-0.075l2.127,1.288
			c0.484-0.268,1.002-0.48,1.543-0.637l0.596-2.418C10.566-21.838,10.764-22,11-22h2c0.236,0,0.433,0.162,0.486,0.381l0.596,2.418
			c0.541,0.156,1.059,0.369,1.541,0.636l2.127-1.286c0.193-0.117,0.447-0.094,0.613,0.074l1.414,1.414
			c0.168,0.166,0.191,0.42,0.074,0.613l-1.286,2.127c0.269,0.482,0.479,1,0.636,1.542l2.418,0.595C21.838-13.433,22-13.236,22-13z
			 M12-16.1c-2.266,0-4.101,1.835-4.101,4.1c0,2.264,1.835,4.1,4.101,4.1c2.264,0,4.1-1.836,4.1-4.1
			C16.1-14.265,14.264-16.1,12-16.1z"/>
		<g opacity="0.05">
			<path fill="#FFFFFF" d="M13-2.5L13-2.5l0.597-2.418l0.069-0.281l0.278-0.08c0.507-0.146,0.991-0.346,1.438-0.593l0.253-0.14
				l0.248,0.149l2.128,1.287l1.414-1.415l-1.287-2.127l-0.15-0.248l0.14-0.253c0.248-0.447,0.447-0.932,0.594-1.439l0.08-0.277
				l0.281-0.069L21.5-11l0-2.001l-2.418-0.595l-0.281-0.069l-0.08-0.277c-0.148-0.515-0.347-0.998-0.592-1.438l-0.141-0.254
				l0.15-0.248l1.286-2.128l-1.415-1.414l-2.127,1.286l-0.248,0.149l-0.253-0.14c-0.447-0.247-0.931-0.446-1.438-0.593l-0.278-0.08
				l-0.069-0.281L13-21.5h-2.001l-0.596,2.418l-0.069,0.281l-0.278,0.08c-0.507,0.146-0.991,0.347-1.44,0.594l-0.253,0.14
				l-0.247-0.149l-2.127-1.287L4.574-18.01l1.287,2.128l0.15,0.247l-0.14,0.254c-0.245,0.443-0.444,0.928-0.592,1.438l-0.08,0.277
				l-0.281,0.069L2.5-13l0,2.001l2.418,0.595l0.281,0.069l0.08,0.277c0.146,0.505,0.345,0.989,0.592,1.439l0.139,0.253L5.861-8.118
				L4.574-5.989l1.415,1.415l2.129-1.288l0.248-0.15L8.62-5.872c0.443,0.246,0.927,0.445,1.437,0.593l0.278,0.08l0.069,0.281L11-2.5
				H13 M12-16.6c2.536,0,4.6,2.063,4.6,4.6S14.536-7.4,12-7.4c-2.537,0-4.601-2.063-4.601-4.6S9.463-16.6,12-16.6 M13-2h-2
				c-0.236,0-0.434-0.162-0.486-0.381L9.918-4.799C9.377-4.955,8.859-5.167,8.377-5.435L6.248-4.146
				C6.169-4.099,6.079-4.074,5.99-4.074c-0.128,0-0.256-0.049-0.354-0.147L4.221-5.636c-0.166-0.167-0.19-0.42-0.074-0.612
				l1.287-2.129c-0.266-0.483-0.479-1-0.635-1.542l-2.418-0.595C2.162-10.567,2-10.764,2-11v-2c0-0.236,0.162-0.433,0.381-0.486
				l2.418-0.595c0.156-0.541,0.367-1.058,0.635-1.542l-1.287-2.128c-0.116-0.192-0.092-0.445,0.074-0.612l1.415-1.414
				c0.098-0.099,0.226-0.147,0.354-0.147c0.089,0,0.179,0.024,0.258,0.072l2.127,1.288c0.484-0.268,1.002-0.48,1.543-0.637
				l0.596-2.418C10.566-21.838,10.764-22,11-22h2c0.236,0,0.433,0.162,0.486,0.381l0.596,2.418c0.541,0.156,1.059,0.369,1.541,0.636
				l2.127-1.286c0.08-0.049,0.17-0.073,0.261-0.073c0.128,0,0.255,0.049,0.353,0.147l1.414,1.414
				c0.168,0.166,0.191,0.42,0.074,0.613l-1.286,2.127c0.269,0.482,0.479,1,0.636,1.542l2.418,0.595C21.838-13.433,22-13.236,22-13v2
				c0,0.236-0.162,0.433-0.381,0.486l-2.418,0.595c-0.156,0.542-0.369,1.06-0.637,1.543l1.287,2.127
				c0.117,0.193,0.094,0.447-0.074,0.613l-1.414,1.414c-0.097,0.099-0.225,0.147-0.353,0.147c-0.09,0-0.181-0.024-0.261-0.073
				l-2.127-1.287c-0.484,0.268-1,0.479-1.541,0.636l-0.596,2.418C13.433-2.162,13.236-2,13-2L13-2z M12-16.1
				c-2.266,0-4.101,1.835-4.101,4.1c0,2.264,1.835,4.1,4.101,4.1c2.264,0,4.1-1.836,4.1-4.1C16.1-14.265,14.264-16.1,12-16.1
				L12-16.1z"/>
		</g>
	</g>
	<g>
		<g opacity="0.2">
			<path fill="#231F20" d="M7.925-11.75C7.919-11.834,7.899-11.914,7.899-12c0-2.265,1.835-4.1,4.101-4.1c2.264,0,4.1,1.835,4.1,4.1
				c0,0.086-0.02,0.166-0.025,0.25C15.942-13.896,14.178-15.6,12-15.6C9.82-15.6,8.056-13.896,7.925-11.75z M4.148-17.25
				c-0.042-0.068-0.073-0.143-0.073-0.219v-0.539c0.001,0.089,0.036,0.196,0.084,0.275l1.275,2.109
				c-0.05,0.09-0.088,0.187-0.134,0.278L4.148-17.25z M18.699-15.345c-0.046-0.092-0.084-0.188-0.134-0.278l1.275-2.109
				c0.048-0.079,0.083-0.187,0.084-0.275v0.539c0,0.076-0.031,0.15-0.073,0.219L18.699-15.345z M22-11v0.5
				c0,0.236-0.162,0.433-0.381,0.486l-2.418,0.595c-0.127,0.441-0.302,0.86-0.503,1.265l-0.134-0.222
				c0.268-0.483,0.48-1.001,0.637-1.543l2.418-0.595C21.838-10.567,22-10.764,22-11z M19.841-5.767
				c0.044-0.083,0.07-0.173,0.071-0.261v0.547c-0.002,0.125-0.038,0.25-0.134,0.345l-1.414,1.414
				c-0.166,0.168-0.42,0.191-0.613,0.074l-2.127-1.287c-0.484,0.268-1,0.479-1.541,0.636l-0.596,2.418
				C13.433-1.662,13.236-1.5,13-1.5h-2c-0.236,0-0.433-0.162-0.486-0.381L9.918-4.299C9.377-4.455,8.861-4.667,8.377-4.935
				L6.25-3.647C6.057-3.53,5.803-3.554,5.637-3.722L4.223-5.136C4.126-5.23,4.09-5.355,4.088-5.48v-0.547
				c0,0.088,0.027,0.178,0.071,0.261c0.023,0.044,0.026,0.095,0.063,0.131l1.414,1.414C5.803-4.054,6.057-4.03,6.25-4.147
				l2.127-1.287c0.484,0.268,1,0.479,1.541,0.636l0.596,2.418C10.567-2.162,10.764-2,11-2h2c0.236,0,0.433-0.162,0.486-0.381
				l0.596-2.418c0.541-0.156,1.057-0.368,1.541-0.636l2.127,1.287c0.193,0.117,0.447,0.094,0.613-0.074l1.414-1.414
				C19.814-5.672,19.818-5.723,19.841-5.767z M4.799-9.419l-2.418-0.595C2.162-10.067,2-10.264,2-10.5V-11
				c0,0.236,0.162,0.433,0.381,0.486l2.418,0.595C4.955-9.377,5.168-8.86,5.434-8.377L5.3-8.156C5.1-8.559,4.926-8.979,4.799-9.419z
				"/>
		</g>
	</g>
</symbol>
<use xlink:href="#ic_x5F_refresh_x5F_darkreg"  width="24" height="24" id="XMLID_14_" y="-24" transform="matrix(1 0 0 -1 24 168)" overflow="visible"/>
<use xlink:href="#ic_x5F_refresh_x5F_darkalt"  width="24" height="24" id="XMLID_13_" y="-24" transform="matrix(1 0 0 -1 48 168)" overflow="visible"/>
<use xlink:href="#ic_x5F_refresh_x5F_lightreg"  width="24" height="24" id="XMLID_12_" y="-24" transform="matrix(1 0 0 -1 72 168)" overflow="visible"/>
<use xlink:href="#ic_x5F_refresh_x5F_flat"  width="24" height="24" id="XMLID_10_" y="-24" transform="matrix(1 0 0 -1 0 168)" overflow="visible"/>
<use xlink:href="#ic_x5F_refresh_x5F_lightalt"  width="24" height="24" y="-24" transform="matrix(1 0 0 -1 96 168)" overflow="visible"/>
<use xlink:href="#ic_x5F_settings_x5F_sm_x5F_flat"  width="24" height="24" id="XMLID_74_" y="-24" transform="matrix(1 0 0 -1 0 192)" overflow="visible"/>
<use xlink:href="#ic_x5F_settings_x5F_sm_x5F_darkreg"  width="24" height="24" id="XMLID_72_" y="-24" transform="matrix(1 0 0 -1 24 192.5)" overflow="visible"/>
<use xlink:href="#ic_x5F_settings_x5F_sm_x5F_darkalt"  width="24" height="24" id="XMLID_71_" y="-24" transform="matrix(1 0 0 -1 48 192.5)" overflow="visible"/>
<use xlink:href="#ic_x5F_settings_x5F_sm_x5F_lightreg"  width="24" height="24" id="XMLID_70_" y="-24" transform="matrix(1 0 0 -1 72 192.5)" overflow="visible"/>
<use xlink:href="#ic_x5F_settings_x5F_sm_x5F_lightalt"  width="24" height="24" id="XMLID_69_" y="-24" transform="matrix(1 0 0 -1 96 192.5)" overflow="visible"/>
<use xlink:href="#ic_x5F_message_x5F_flat"  width="24" height="24" id="XMLID_39_" y="-24" transform="matrix(1 0 0 -1 0 216)" overflow="visible"/>
<use xlink:href="#ic_x5F_message_x5F_darkreg"  width="24" height="24" y="-24" transform="matrix(1 0 0 -1 24 216)" overflow="visible"/>
<use xlink:href="#ic_x5F_message_x5F_darkalt"  width="24" height="24" y="-24" transform="matrix(1 0 0 -1 48 216)" overflow="visible"/>
<use xlink:href="#ic_x5F_message_x5F_lightreg"  width="24" height="24" y="-24" transform="matrix(1 0 0 -1 72 216)" overflow="visible"/>
<use xlink:href="#ic_x5F_message_x5F_lightalt"  width="24" height="24" y="-24" transform="matrix(1 0 0 -1 96 216)" overflow="visible"/>
<use xlink:href="#ic_x5F_delete_x5F_flat"  width="24" height="24" id="XMLID_308_" y="-24" transform="matrix(1 0 0 -1 0 144)" overflow="visible"/>
<use xlink:href="#ic_x5F_delete_x5F_darkreg"  width="24" height="24" id="XMLID_43_" y="-24" transform="matrix(1 0 0 -1 24 144.5)" overflow="visible"/>
<use xlink:href="#ic_x5F_delete_x5F_darkalt"  width="24" height="24" id="XMLID_23_" y="-24" transform="matrix(1 0 0 -1 48 144.5)" overflow="visible"/>
<use xlink:href="#ic_x5F_delete_x5F_lightreg"  width="24" height="24" id="XMLID_22_" y="-24" transform="matrix(1 0 0 -1 72 144.5)" overflow="visible"/>
<use xlink:href="#ic_x5F_delete_x5F_lightalt"  width="24" height="24" id="XMLID_16_" y="-24" transform="matrix(1 0 0 -1 96 144.5)" overflow="visible"/>
<use xlink:href="#ic_x5F_add_x5F_flat"  width="24" height="24" id="XMLID_242_" y="-24" transform="matrix(1 0 0 -1 0 120)" overflow="visible"/>
<use xlink:href="#ic_x5F_add_x5F_darkreg"  width="24" height="24" id="XMLID_241_" y="-24" transform="matrix(1 0 0 -1 24 120)" overflow="visible"/>
<use xlink:href="#ic_x5F_add_x5F_darkalt"  width="24" height="24" id="XMLID_233_" y="-24" transform="matrix(1 0 0 -1 48 120)" overflow="visible"/>
<use xlink:href="#ic_x5F_add_x5F_lightreg"  width="24" height="24" id="XMLID_232_" y="-24" transform="matrix(1 0 0 -1 72 120)" overflow="visible"/>
<use xlink:href="#ic_x5F_add_x5F_lightalt"  width="24" height="24" id="XMLID_147_" y="-24" transform="matrix(1 0 0 -1 96 120)" overflow="visible"/>
<use xlink:href="#ic_x5F_close_x5F_flat"  width="24" height="24" id="XMLID_131_" y="-24" transform="matrix(1 0 0 -1 0 96)" overflow="visible"/>
<use xlink:href="#ic_x5F_close_x5F_darkreg"  width="24" height="24" y="-24" transform="matrix(1 0 0 -1 24 96)" overflow="visible"/>
<use xlink:href="#ic_x5F_close_x5F_darkalt"  width="24" height="24" y="-24" transform="matrix(1 0 0 -1 48 96)" overflow="visible"/>
<use xlink:href="#ic_x5F_close_x5F_lightreg"  width="24" height="24" y="-24" transform="matrix(1 0 0 -1 72 96)" overflow="visible"/>
<use xlink:href="#ic_x5F_close_x5F_lightalt"  width="24" height="24" y="-24" transform="matrix(1 0 0 -1 96 96)" overflow="visible"/>
<use xlink:href="#ic_x5F_arrow_x5F_dropdown_x5F_darkreg"  width="24" height="24" id="XMLID_257_" y="-24" transform="matrix(1 0 0 -1 24 72)" overflow="visible"/>
<use xlink:href="#ic_x5F_arrow_x5F_dropdown_x5F_darkalt"  width="24" height="24" id="XMLID_256_" y="-24" transform="matrix(1 0 0 -1 48 72)" overflow="visible"/>
<use xlink:href="#ic_x5F_arrow_x5F_dropdown_x5F_lightreg"  width="24" height="24" id="XMLID_255_" y="-24" transform="matrix(1 0 0 -1 72 72)" overflow="visible"/>
<use xlink:href="#ic_x5F_arrow_x5F_dropdown_x5F_flat"  width="24" height="24" id="XMLID_189_" y="-24" transform="matrix(1 0 0 -1 0 72)" overflow="visible"/>
<use xlink:href="#ic_x5F_arrow_x5F_dropdown_x5F_lightalt"  width="24" height="24" y="-24" transform="matrix(1 0 0 -1 96 72)" overflow="visible"/>
<use xlink:href="#ic_x5F_searchinput_x5F_lg_x5F_flat"  width="24" height="24" id="XMLID_310_" y="-24" transform="matrix(1 0 0 -1 0 48)" overflow="visible"/>
<use xlink:href="#ic_x5F_searchinput_x5F_lg_x5F_darkreg"  width="24" height="24" id="XMLID_361_" y="-24" transform="matrix(1 0 0 -1 24 48)" overflow="visible"/>
<use xlink:href="#ic_x5F_searchinput_x5F_lg_x5F_darkalt"  width="24" height="24" id="XMLID_362_" y="-24" transform="matrix(1 0 0 -1 48 48)" overflow="visible"/>
<use xlink:href="#ic_x5F_searchinput_x5F_lg_x5F_lightreg"  width="24" height="24" id="XMLID_363_" y="-24" transform="matrix(1 0 0 -1 72 48)" overflow="visible"/>
<use xlink:href="#ic_x5F_searchinput_x5F_lg_x5F_lightalt"  width="24" height="24" id="XMLID_364_" y="-24" transform="matrix(1 0 0 -1 96 48)" overflow="visible"/>
<use xlink:href="#ic_x5F_menu_x5F_darkreg"  width="24" height="24" id="XMLID_254_" y="-24" transform="matrix(1 0 0 -1 24 24)" overflow="visible"/>
<use xlink:href="#ic_x5F_menu_x5F_darkalt"  width="24" height="24" id="XMLID_253_" y="-24" transform="matrix(1 0 0 -1 48 24)" overflow="visible"/>
<use xlink:href="#ic_x5F_menu_x5F_lightreg"  width="24" height="24" id="XMLID_252_" y="-24" transform="matrix(1 0 0 -1 72 24)" overflow="visible"/>
<use xlink:href="#ic_x5F_menu_x5F_flat"  width="24" height="24" id="XMLID_243_" y="-24" transform="matrix(1 0 0 -1 0 24)" overflow="visible"/>
<use xlink:href="#ic_x5F_menu_x5F_lightalt"  width="24" height="24" y="-24" transform="matrix(1 0 0 -1 96 24)" overflow="visible"/>
<use xlink:href="#ic_x5F_drawer_x5F_darkreg"  width="24" height="24" id="XMLID_251_" y="-24" transform="matrix(1 0 0 -1 24 0)" overflow="visible"/>
<use xlink:href="#ic_x5F_drawer_x5F_darkalt"  width="24" height="24" id="XMLID_250_" y="-24" transform="matrix(1 0 0 -1 48 0)" overflow="visible"/>
<use xlink:href="#ic_x5F_drawer_x5F_lightreg"  width="24" height="24" id="XMLID_249_" y="-24" transform="matrix(1 0 0 -1 72 0)" overflow="visible"/>
<use xlink:href="#ic_x5F_drawer_x5F_flat"  width="24" height="24" id="XMLID_217_" y="-24" transform="matrix(1 0 0 -1 0 0)" overflow="visible"/>
<use xlink:href="#ic_x5F_drawer_x5F_lightalt"  width="24" height="24" y="-24" transform="matrix(1 0 0 -1 96 0)" overflow="visible"/>
</svg>
