<?xml version="1.0" encoding="utf-8"?>
<!-- Generator: Adobe Illustrator 15.0.2, SVG Export Plug-In . SVG Version: 6.00 Build 0)  -->
<!DOCTYPE svg PUBLIC "-//W3C//DTD SVG 1.1//EN" "http://www.w3.org/Graphics/SVG/1.1/DTD/svg11.dtd">
<svg version="1.1" id="Layer_1" xmlns="http://www.w3.org/2000/svg" xmlns:xlink="http://www.w3.org/1999/xlink" x="0px" y="0px"
	 width="21px" height="21px" viewBox="0 0 21 21" enable-background="new 0 0 21 21" xml:space="preserve">
<path d="M18.135,4.187H2.864c-0.749,0-1.361,0.625-1.364,1.394v9.838c0,0.771,0.611,1.396,1.364,1.396h15.271
	c0.754,0,1.365-0.625,1.365-1.396V5.579C19.498,4.811,18.886,4.187,18.135,4.187z M17.934,7.369l0.01,0.014l-6.811,4.64l-0.014-0.02
	c-0.178,0.126-0.385,0.219-0.62,0.219c-0.234,0-0.441-0.093-0.62-0.219l-0.013,0.02l-6.81-4.64l0.011-0.014
	C2.804,7.159,2.625,6.847,2.625,6.48c0-0.632,0.502-1.146,1.124-1.146c0.27,0,0.509,0.108,0.702,0.27l0.006-0.008L10.5,9.705
	l6.043-4.108l0.008,0.01c0.191-0.162,0.43-0.271,0.7-0.271c0.621,0,1.124,0.515,1.124,1.146C18.375,6.847,18.195,7.159,17.934,7.369
	z"/>
<rect fill="#4387FD" fill-opacity="0" width="21" height="21"/>
</svg>
