<?xml version="1.0" encoding="utf-8"?>
<!-- Generator: Adobe Illustrator 15.0.2, SVG Export Plug-In  -->
<!DOCTYPE svg PUBLIC "-//W3C//DTD SVG 1.1//EN" "http://www.w3.org/Graphics/SVG/1.1/DTD/svg11.dtd" [
	<!ENTITY ns_flows "http://ns.adobe.com/Flows/1.0/">
]>
<svg version="1.1"
	 xmlns="http://www.w3.org/2000/svg" xmlns:xlink="http://www.w3.org/1999/xlink" xmlns:a="http://ns.adobe.com/AdobeSVGViewerExtensions/3.0/"
	 x="0px" y="0px" width="32px" height="32px" viewBox="-5 -5 32 32" overflow="visible" enable-background="new -5 -5 32 32"
	 xml:space="preserve">
<defs>
</defs>
<path fill="#FFFFFF" d="M0,2v18c0,1.104,0.895,2,2,2h18c1.104,0,2-0.896,2-2V2c0-1.104-0.896-2-2-2H2C0.895,0,0,0.896,0,2z M14.1,7
	c0,1.713-1.389,3.1-3.1,3.1S7.9,8.713,7.9,7c0-1.711,1.389-3.1,3.1-3.1S14.1,5.289,14.1,7z M5,15c0-2,4-3.1,6-3.1s6,1.1,6,3.1v2H5
	V15z"/>
</svg>
